<svg width="378" height="97" viewBox="0 0 378 97" fill="none" xmlns="http://www.w3.org/2000/svg">
<rect width="378" height="97" fill="#F9F9F9"/>
<g clip-path="url(#clip0_238_1827)">
<g filter="url(#filter0_d_238_1827)">
<path d="M54.4645 84.8773C41.2534 86.0204 24.1562 90.4684 0.77417 95.8577C27.2821 92.7856 46.4613 90.3644 53.8451 90.3869C46.2954 92.0383 41.7938 92.947 33.2903 94.5385C63.0184 91.128 74.8654 90.6857 85.2387 96.3233C83.6957 94.0993 80.7809 92.5644 77.4294 90.8005L77.3806 90.7749C83.6508 90.8021 87.7138 91.7713 94.4229 95.8577C84.9569 87.3582 74.0134 83.1857 54.4645 84.8773Z" fill="#00579E"/>
</g>
<g filter="url(#filter1_d_238_1827)">
<path d="M27.2101 14.5866C23.6681 20.7752 20.8727 23.0381 14.9972 26.246C13.9344 26.9367 13.6064 27.3658 13.8747 28.2636C14.2084 28.8813 15.7488 29.6882 15.9263 30.0872C16.6181 31.6431 15.3069 33.3852 15.3069 33.3852C15.3069 33.3852 13.836 35.6744 13.8747 35.9848C13.9134 36.2952 15.5954 36.8452 15.5005 37.5756C15.3568 38.6809 13.9908 38.7396 14.1069 39.5156C14.2231 40.2916 15.9563 41.8327 16.1973 43.7836C15.8145 45.9765 15.2726 46.9646 13.7585 48.3232C13.0826 49.2321 12.7279 50.1468 13.6037 51.1556C14.4796 52.1644 23.3088 58.3158 30.094 62.7568C38.7707 69.6283 40.7381 74.1818 38.3004 83.7475C39.637 83.6955 42.7243 78.2456 43.1391 71.0212C43.5717 63.4874 41.0875 52.7076 39.152 45.6072C37.2165 38.5068 36.5729 33.3241 36.5198 27.8756C36.439 19.6025 37.7461 11.966 40.081 2.53916C34.4732 1.18273 30.9843 6.49681 27.2101 14.5866Z" fill="#0B2F69"/>
</g>
<g filter="url(#filter2_d_238_1827)">
<path d="M59.239 65.7272C50.8796 38.9813 45.2387 25.3998 60.0563 2.328C67.6919 4.04977 68.2256 6.64819 69.8252 13.386C71.4249 20.1238 74.6698 22.0803 78.9329 24.638C79.7512 25.6758 79.6064 26.2875 78.5729 27.417C76.2632 28.9485 75.9025 28.583 77.4147 31.1952C78.9267 33.8074 77.2201 33.5232 76.9866 34.2992C76.7531 35.0752 78.5768 36.5365 77.7259 37.1316C75.2352 38.5284 74.6903 39.0328 76.4806 43.1068C76.8976 45.0917 76.9397 46.0357 76.0527 46.8704C69.0324 51.0097 65.4905 54.748 64.1429 64.7572C62.7952 74.7664 63.2439 76.3594 58.6941 83.1872C60.7159 74.1413 60.6824 73.2823 59.239 65.7272Z" fill="#307481"/>
</g>
</g>
<circle cx="245.5" cy="11" r="2.5" fill="#CC3A3A"/>
<rect width="41" height="47" transform="translate(115 15.5)" fill="#00579E"/>
<path d="M135.744 57.208C132.717 57.208 130.284 56.8906 128.444 56.2559C126.621 55.6048 125.279 54.5794 124.416 53.1797C123.553 51.7637 123.122 49.8919 123.122 47.5645H127.15C127.15 49.0944 127.427 50.2907 127.98 51.1533C128.534 51.9997 129.437 52.61 130.69 52.9844C131.944 53.3424 133.685 53.5215 135.915 53.5215C137.95 53.5215 139.561 53.3018 140.749 52.8623C141.937 52.4229 142.792 51.7311 143.312 50.7871C143.85 49.8268 144.118 48.541 144.118 46.9297C144.118 45.4811 143.809 44.3092 143.19 43.4141C142.572 42.5189 141.522 41.7946 140.041 41.2412C138.56 40.6715 136.477 40.1914 133.791 39.8008C130.113 39.2637 127.427 38.1813 125.734 36.5537C124.058 34.9098 123.22 32.6312 123.22 29.7178C123.22 26.5602 124.261 24.2246 126.345 22.7109C128.428 21.1973 131.634 20.4404 135.964 20.4404C138.731 20.4404 140.944 20.7415 142.604 21.3438C144.265 21.9297 145.477 22.8737 146.242 24.1758C147.007 25.4779 147.39 27.2113 147.39 29.376H143.508C143.508 28.0251 143.264 26.9753 142.775 26.2266C142.287 25.4779 141.473 24.9489 140.334 24.6396C139.211 24.3141 137.632 24.1514 135.598 24.1514C133.628 24.1514 132.049 24.3385 130.861 24.7129C129.689 25.071 128.827 25.6488 128.273 26.4463C127.736 27.2438 127.468 28.3018 127.468 29.6201C127.468 31.0036 127.753 32.1104 128.322 32.9404C128.892 33.7542 129.885 34.4297 131.301 34.9668C132.717 35.4876 134.768 35.9596 137.453 36.3828C141.245 36.9688 144.012 38.0999 145.754 39.7764C147.495 41.4528 148.366 43.7721 148.366 46.7344C148.366 50.3151 147.349 52.96 145.314 54.6689C143.28 56.3617 140.09 57.208 135.744 57.208Z" fill="white"/>
<path d="M128.444 56.2559L127.772 58.1393L127.782 58.1429L127.792 58.1464L128.444 56.2559ZM124.416 53.1797L122.708 54.2202L122.713 54.229L124.416 53.1797ZM123.122 47.5645V45.5645H121.122V47.5645H123.122ZM127.15 47.5645H129.15V45.5645H127.15V47.5645ZM127.98 51.1533L126.297 52.2332L126.302 52.2405L126.307 52.2478L127.98 51.1533ZM130.69 52.9844L130.118 54.9007L130.129 54.9041L130.141 54.9074L130.69 52.9844ZM143.312 50.7871L141.567 49.8108L141.561 49.821L143.312 50.7871ZM140.041 41.2412L139.323 43.1079L139.332 43.1114L139.341 43.1147L140.041 41.2412ZM133.791 39.8008L133.502 41.7798L133.503 41.78L133.791 39.8008ZM125.734 36.5537L124.334 37.9817L124.341 37.9886L124.348 37.9954L125.734 36.5537ZM142.604 21.3438L141.922 23.2239L141.931 23.2268L141.939 23.2297L142.604 21.3438ZM146.242 24.1758L147.967 23.1627L146.242 24.1758ZM147.39 29.376V31.376H149.39V29.376H147.39ZM143.508 29.376H141.508V31.376H143.508V29.376ZM140.334 24.6396L139.777 26.5606L139.794 26.5653L139.81 26.5698L140.334 24.6396ZM130.861 24.7129L131.446 26.6256L131.454 26.6231L131.462 26.6205L130.861 24.7129ZM128.273 26.4463L126.63 25.3061L126.622 25.3176L126.615 25.3291L128.273 26.4463ZM128.322 32.9404L126.673 34.0721L126.678 34.0798L126.684 34.0874L128.322 32.9404ZM131.301 34.9668L130.591 36.8368L130.601 36.8404L130.61 36.8439L131.301 34.9668ZM137.453 36.3828L137.142 38.3584L137.148 38.3594L137.453 36.3828ZM145.754 39.7764L147.141 38.3355L145.754 39.7764ZM145.314 54.6689L146.594 56.2064L146.601 56.2004L145.314 54.6689ZM135.744 55.208C132.83 55.208 130.643 54.8989 129.097 54.3653L127.792 58.1464C129.924 58.8823 132.604 59.208 135.744 59.208V55.208ZM129.117 54.3724C127.643 53.846 126.702 53.0771 126.119 52.1304L122.713 54.229C123.855 56.0817 125.6 57.3637 127.772 58.1393L129.117 54.3724ZM126.124 52.1392C125.515 51.1386 125.122 49.6662 125.122 47.5645H121.122C121.122 50.1177 121.592 52.3887 122.708 54.2202L126.124 52.1392ZM123.122 49.5645H127.15V45.5645H123.122V49.5645ZM125.15 47.5645C125.15 49.3006 125.459 50.9264 126.297 52.2332L129.664 50.0734C129.395 49.655 129.15 48.8882 129.15 47.5645H125.15ZM126.307 52.2478C127.187 53.5937 128.547 54.4316 130.118 54.9007L131.263 51.068C130.327 50.7885 129.881 50.4057 129.654 50.0588L126.307 52.2478ZM130.141 54.9074C131.655 55.3401 133.611 55.5215 135.915 55.5215V51.5215C133.759 51.5215 132.232 51.3448 131.24 51.0613L130.141 54.9074ZM135.915 55.5215C138.061 55.5215 139.939 55.2943 141.443 54.7381L140.055 50.9865C139.183 51.3093 137.839 51.5215 135.915 51.5215V55.5215ZM141.443 54.7381C142.998 54.1629 144.271 53.1891 145.064 51.7533L141.561 49.821C141.312 50.2732 140.876 50.6828 140.055 50.9865L141.443 54.7381ZM145.058 51.7634C145.822 50.3979 146.118 48.7349 146.118 46.9297H142.118C142.118 48.3471 141.877 49.2558 141.567 49.8108L145.058 51.7634ZM146.118 46.9297C146.118 45.2074 145.751 43.6011 144.836 42.2772L141.545 44.5509C141.867 45.0174 142.118 45.7548 142.118 46.9297H146.118ZM144.836 42.2772C143.901 40.9247 142.44 40.0023 140.741 39.3677L139.341 43.1147C140.605 43.5869 141.242 44.1131 141.545 44.5509L144.836 42.2772ZM140.759 39.3745C139.075 38.727 136.824 38.2208 134.079 37.8216L133.503 41.78C136.13 42.162 138.044 42.6161 139.323 43.1079L140.759 39.3745ZM134.08 37.8218C130.592 37.3124 128.383 36.3261 127.121 35.112L124.348 37.9954C126.471 40.0365 129.633 41.2149 133.502 41.7798L134.08 37.8218ZM127.135 35.1257C125.93 33.9444 125.22 32.2314 125.22 29.7178H121.22C121.22 33.031 122.186 35.8753 124.334 37.9817L127.135 35.1257ZM125.22 29.7178C125.22 27.0379 126.074 25.38 127.52 24.329L125.169 21.0929C122.449 23.0692 121.22 26.0826 121.22 29.7178H125.22ZM127.52 24.329C129.099 23.182 131.797 22.4404 135.964 22.4404V18.4404C131.472 18.4404 127.757 19.2126 125.169 21.0929L127.52 24.329ZM135.964 22.4404C138.615 22.4404 140.569 22.7328 141.922 23.2239L143.286 19.4636C141.32 18.7502 138.847 18.4404 135.964 18.4404V22.4404ZM141.939 23.2297C143.232 23.6861 144.03 24.3593 144.518 25.1889L147.967 23.1627C146.924 21.3881 145.297 20.1733 143.27 19.4578L141.939 23.2297ZM144.518 25.1889C145.041 26.0788 145.39 27.4218 145.39 29.376H149.39C149.39 27.0007 148.974 24.8769 147.967 23.1627L144.518 25.1889ZM147.39 27.376H143.508V31.376H147.39V27.376ZM145.508 29.376C145.508 27.8223 145.233 26.3342 144.451 25.134L141.1 27.3191C141.294 27.6164 141.508 28.2279 141.508 29.376H145.508ZM144.451 25.134C143.618 23.8574 142.316 23.1053 140.858 22.7095L139.81 26.5698C140.631 26.7925 140.956 27.0984 141.1 27.3191L144.451 25.134ZM140.891 22.7187C139.501 22.3159 137.703 22.1514 135.598 22.1514V26.1514C137.561 26.1514 138.921 26.3124 139.777 26.5606L140.891 22.7187ZM135.598 22.1514C133.528 22.1514 131.722 22.3448 130.26 22.8053L131.462 26.6205C132.377 26.3323 133.728 26.1514 135.598 26.1514V22.1514ZM130.277 22.8002C128.79 23.2545 127.501 24.0517 126.63 25.3061L129.917 27.5865C130.153 27.2458 130.589 26.8874 131.446 26.6256L130.277 22.8002ZM126.615 25.3291C125.787 26.5585 125.468 28.0472 125.468 29.6201H129.468C129.468 28.5563 129.686 27.9291 129.932 27.5635L126.615 25.3291ZM125.468 29.6201C125.468 31.2606 125.804 32.8054 126.673 34.0721L129.971 31.8087C129.701 31.4153 129.468 30.7466 129.468 29.6201H125.468ZM126.684 34.0874C127.575 35.3608 128.984 36.2271 130.591 36.8368L132.01 33.0968C130.785 32.6323 130.209 32.1477 129.961 31.7935L126.684 34.0874ZM130.61 36.8439C132.21 37.4322 134.412 37.9283 137.142 38.3584L137.764 34.4072C135.123 33.991 133.224 33.5431 131.991 33.0897L130.61 36.8439ZM137.148 38.3594C140.754 38.9165 143.05 39.9498 144.367 41.2173L147.141 38.3355C144.975 36.2501 141.737 35.021 137.759 34.4063L137.148 38.3594ZM144.367 41.2173C145.631 42.4345 146.366 44.1847 146.366 46.7344H150.366C150.366 43.3596 149.359 40.4711 147.141 38.3355L144.367 41.2173ZM146.366 46.7344C146.366 49.9418 145.467 51.9292 144.028 53.1375L146.601 56.2004C149.231 53.9907 150.366 50.6884 150.366 46.7344H146.366ZM144.035 53.1315C142.528 54.3858 139.901 55.208 135.744 55.208V59.208C140.279 59.208 144.032 58.3375 146.594 56.2064L144.035 53.1315Z" fill="white"/>
<rect width="41" height="47" transform="translate(159 15.5)" fill="#00579E"/>
<path d="M179.5 57.6719C176.489 57.6719 173.925 57.1185 171.81 56.0117C169.694 54.9049 168.082 53.2936 166.976 51.1777C165.885 49.0456 165.34 46.474 165.34 43.4629V21.3193H169.588V43.5361C169.588 46.8402 170.442 49.3874 172.151 51.1777C173.877 52.9518 176.326 53.8389 179.5 53.8389C182.658 53.8389 185.091 52.9437 186.8 51.1533C188.525 49.363 189.388 46.8239 189.388 43.5361V21.3193H193.636V43.4629C193.636 46.474 193.082 49.0456 191.976 51.1777C190.885 53.2936 189.282 54.9049 187.166 56.0117C185.066 57.1185 182.511 57.6719 179.5 57.6719Z" fill="white"/>
<path d="M166.976 51.1777L165.195 52.0884L165.199 52.0966L165.203 52.1047L166.976 51.1777ZM165.34 21.3193V19.3193H163.34V21.3193H165.34ZM169.588 21.3193H171.588V19.3193H169.588V21.3193ZM172.151 51.1777L170.705 52.5587L170.711 52.5654L170.718 52.5721L172.151 51.1777ZM186.8 51.1533L185.36 49.7655L185.353 49.7724L186.8 51.1533ZM189.388 21.3193V19.3193H187.388V21.3193H189.388ZM193.636 21.3193H195.636V19.3193H193.636V21.3193ZM191.976 51.1777L190.2 50.2563L190.198 50.2615L191.976 51.1777ZM187.166 56.0117L186.239 54.2395L186.233 54.2425L187.166 56.0117ZM179.5 55.6719C176.729 55.6719 174.501 55.1626 172.737 54.2395L170.883 57.7839C173.35 59.0743 176.248 59.6719 179.5 59.6719V55.6719ZM172.737 54.2395C170.982 53.3217 169.666 52.0053 168.748 50.2507L165.203 52.1047C166.499 54.5819 168.405 56.4882 170.883 57.7839L172.737 54.2395ZM168.756 50.267C167.842 48.48 167.34 46.2369 167.34 43.4629H163.34C163.34 46.711 163.928 49.6111 165.195 52.0884L168.756 50.267ZM167.34 43.4629V21.3193H163.34V43.4629H167.34ZM165.34 23.3193H169.588V19.3193H165.34V23.3193ZM167.588 21.3193V43.5361H171.588V21.3193H167.588ZM167.588 43.5361C167.588 47.1779 168.535 50.2856 170.705 52.5587L173.598 49.7968C172.35 48.4892 171.588 46.5025 171.588 43.5361H167.588ZM170.718 52.5721C172.918 54.835 175.947 55.8389 179.5 55.8389V51.8389C176.706 51.8389 174.835 51.0686 173.585 49.7834L170.718 52.5721ZM179.5 55.8389C183.045 55.8389 186.063 54.8221 188.247 52.5343L185.353 49.7724C184.119 51.0653 182.27 51.8389 179.5 51.8389V55.8389ZM188.24 52.5411C190.428 50.2703 191.388 47.1696 191.388 43.5361H187.388C187.388 46.4782 186.622 48.4556 185.36 49.7655L188.24 52.5411ZM191.388 43.5361V21.3193H187.388V43.5361H191.388ZM189.388 23.3193H193.636V19.3193H189.388V23.3193ZM191.636 21.3193V43.4629H195.636V21.3193H191.636ZM191.636 43.4629C191.636 46.2328 191.127 48.4719 190.2 50.2563L193.751 52.0992C195.038 49.6192 195.636 46.7151 195.636 43.4629H191.636ZM190.198 50.2615C189.297 52.01 187.991 53.323 186.239 54.2395L188.093 57.7839C190.573 56.4869 192.474 54.5772 193.753 52.094L190.198 50.2615ZM186.233 54.2425C184.488 55.1624 182.271 55.6719 179.5 55.6719V59.6719C182.751 59.6719 185.645 59.0746 188.099 57.781L186.233 54.2425Z" fill="white"/>
<rect width="41" height="47" transform="translate(203 15.5)" fill="#00579E"/>
<path d="M210.707 21.3193H222.377C227.895 21.3193 231.972 22.7435 234.608 25.5918C237.261 28.4238 238.588 32.8102 238.588 38.751C238.588 44.7894 237.253 49.2572 234.584 52.1543C231.915 55.0514 227.813 56.5 222.279 56.5H210.707V21.3193ZM222.45 52.7891C225.299 52.7891 227.577 52.3252 229.286 51.3975C230.995 50.4535 232.24 48.9723 233.021 46.9541C233.819 44.9196 234.218 42.2178 234.218 38.8486C234.218 35.2842 233.843 32.5173 233.095 30.5479C232.346 28.5622 231.093 27.1462 229.335 26.2998C227.593 25.4535 225.152 25.0303 222.011 25.0303H214.955V52.7891H222.45Z" fill="white"/>
<path d="M210.707 21.3193V19.3193H208.707V21.3193H210.707ZM234.608 25.5918L233.141 26.9505L233.149 26.9591L234.608 25.5918ZM210.707 56.5H208.707V58.5H210.707V56.5ZM229.286 51.3975L230.24 53.1552L230.247 53.1517L230.253 53.1481L229.286 51.3975ZM233.021 46.9541L231.159 46.2242L231.156 46.2321L233.021 46.9541ZM233.095 30.5479L231.223 31.2535L231.225 31.2586L233.095 30.5479ZM229.335 26.2998L228.461 28.0986L228.467 28.1018L229.335 26.2998ZM214.955 25.0303V23.0303H212.955V25.0303H214.955ZM214.955 52.7891H212.955V54.7891H214.955V52.7891ZM210.707 23.3193H222.377V19.3193H210.707V23.3193ZM222.377 23.3193C227.577 23.3193 231.019 24.6589 233.141 26.9504L236.076 24.2331C232.924 20.828 228.212 19.3193 222.377 19.3193V23.3193ZM233.149 26.9591C235.31 29.2657 236.588 33.0564 236.588 38.751H240.588C240.588 32.5641 239.213 27.5819 236.068 24.2245L233.149 26.9591ZM236.588 38.751C236.588 44.5462 235.3 48.4255 233.113 50.7991L236.055 53.5095C239.206 50.0888 240.588 45.0326 240.588 38.751H236.588ZM233.113 50.7991C230.955 53.1409 227.487 54.5 222.279 54.5V58.5C228.14 58.5 232.874 56.9619 236.055 53.5095L233.113 50.7991ZM222.279 54.5H210.707V58.5H222.279V54.5ZM212.707 56.5V21.3193H208.707V56.5H212.707ZM222.45 54.7891C225.488 54.7891 228.134 54.2988 230.24 53.1552L228.332 49.6398C227.021 50.3516 225.109 50.7891 222.45 50.7891V54.7891ZM230.253 53.1481C232.418 51.9522 233.956 50.0813 234.887 47.6761L231.156 46.2321C230.525 47.8634 229.572 48.9547 228.319 49.6468L230.253 53.1481ZM234.884 47.684C235.808 45.3261 236.218 42.3467 236.218 38.8486H232.218C232.218 42.0889 231.83 44.5131 231.159 46.2242L234.884 47.684ZM236.218 38.8486C236.218 35.1856 235.839 32.1377 234.964 29.8371L231.225 31.2586C231.848 32.8968 232.218 35.3828 232.218 38.8486H236.218ZM234.966 29.8422C234.054 27.4219 232.466 25.5876 230.203 24.4978L228.467 28.1018C229.72 28.7047 230.639 29.7025 231.223 31.2535L234.966 29.8422ZM230.209 24.501C228.077 23.4648 225.288 23.0303 222.011 23.0303V27.0303C225.016 27.0303 227.11 27.4422 228.461 28.0986L230.209 24.501ZM222.011 23.0303H214.955V27.0303H222.011V23.0303ZM212.955 25.0303V52.7891H216.955V25.0303H212.955ZM214.955 54.7891H222.45V50.7891H214.955V54.7891Z" fill="white"/>
<rect width="41" height="47" transform="translate(247 15.5)" fill="#00579E"/>
<path d="M257.075 21.3193H280.513V25.0303H261.323V36.3096H277.632V39.9717H261.323V52.7891H280.586V56.5H257.075V21.3193Z" fill="white"/>
<path d="M257.075 21.3193V19.3193H255.075V21.3193H257.075ZM280.513 21.3193H282.513V19.3193H280.513V21.3193ZM280.513 25.0303V27.0303H282.513V25.0303H280.513ZM261.323 25.0303V23.0303H259.323V25.0303H261.323ZM261.323 36.3096H259.323V38.3096H261.323V36.3096ZM277.632 36.3096H279.632V34.3096H277.632V36.3096ZM277.632 39.9717V41.9717H279.632V39.9717H277.632ZM261.323 39.9717V37.9717H259.323V39.9717H261.323ZM261.323 52.7891H259.323V54.7891H261.323V52.7891ZM280.586 52.7891H282.586V50.7891H280.586V52.7891ZM280.586 56.5V58.5H282.586V56.5H280.586ZM257.075 56.5H255.075V58.5H257.075V56.5ZM257.075 23.3193H280.513V19.3193H257.075V23.3193ZM278.513 21.3193V25.0303H282.513V21.3193H278.513ZM280.513 23.0303H261.323V27.0303H280.513V23.0303ZM259.323 25.0303V36.3096H263.323V25.0303H259.323ZM261.323 38.3096H277.632V34.3096H261.323V38.3096ZM275.632 36.3096V39.9717H279.632V36.3096H275.632ZM277.632 37.9717H261.323V41.9717H277.632V37.9717ZM259.323 39.9717V52.7891H263.323V39.9717H259.323ZM261.323 54.7891H280.586V50.7891H261.323V54.7891ZM278.586 52.7891V56.5H282.586V52.7891H278.586ZM280.586 54.5H257.075V58.5H280.586V54.5ZM259.075 56.5V21.3193H255.075V56.5H259.075Z" fill="white"/>
<rect width="41" height="47" transform="translate(291 15.5)" fill="#00579E"/>
<path d="M301.075 21.3193H324.513V25.0303H305.323V36.3096H321.632V39.9717H305.323V52.7891H324.586V56.5H301.075V21.3193Z" fill="white"/>
<path d="M301.075 21.3193V19.3193H299.075V21.3193H301.075ZM324.513 21.3193H326.513V19.3193H324.513V21.3193ZM324.513 25.0303V27.0303H326.513V25.0303H324.513ZM305.323 25.0303V23.0303H303.323V25.0303H305.323ZM305.323 36.3096H303.323V38.3096H305.323V36.3096ZM321.632 36.3096H323.632V34.3096H321.632V36.3096ZM321.632 39.9717V41.9717H323.632V39.9717H321.632ZM305.323 39.9717V37.9717H303.323V39.9717H305.323ZM305.323 52.7891H303.323V54.7891H305.323V52.7891ZM324.586 52.7891H326.586V50.7891H324.586V52.7891ZM324.586 56.5V58.5H326.586V56.5H324.586ZM301.075 56.5H299.075V58.5H301.075V56.5ZM301.075 23.3193H324.513V19.3193H301.075V23.3193ZM322.513 21.3193V25.0303H326.513V21.3193H322.513ZM324.513 23.0303H305.323V27.0303H324.513V23.0303ZM303.323 25.0303V36.3096H307.323V25.0303H303.323ZM305.323 38.3096H321.632V34.3096H305.323V38.3096ZM319.632 36.3096V39.9717H323.632V36.3096H319.632ZM321.632 37.9717H305.323V41.9717H321.632V37.9717ZM303.323 39.9717V52.7891H307.323V39.9717H303.323ZM305.323 54.7891H324.586V50.7891H305.323V54.7891ZM322.586 52.7891V56.5H326.586V52.7891H322.586ZM324.586 54.5H301.075V58.5H324.586V54.5ZM303.075 56.5V21.3193H299.075V56.5H303.075Z" fill="white"/>
<rect width="41" height="47" transform="translate(335 15.5)" fill="#00579E"/>
<path d="M344.904 21.3193H355.622C359.219 21.3193 362.002 21.653 363.972 22.3203C365.957 22.9876 367.373 24.127 368.22 25.7383C369.066 27.3333 369.489 29.612 369.489 32.5742C369.489 35.3411 369.025 37.5303 368.098 39.1416C367.17 40.7529 365.705 41.9167 363.703 42.6328C361.701 43.349 359.007 43.707 355.622 43.707H349.152V56.5H344.904V21.3193ZM355.622 40.1426C358.34 40.1426 360.383 39.9391 361.75 39.5322C363.117 39.1253 364.077 38.3929 364.631 37.335C365.184 36.277 365.461 34.6901 365.461 32.5742C365.461 30.3932 365.184 28.7575 364.631 27.667C364.077 26.5765 363.117 25.8197 361.75 25.3965C360.383 24.9733 358.34 24.7617 355.622 24.7617H349.152V40.1426H355.622Z" fill="white"/>
<path d="M344.904 21.3193V19.3193H342.904V21.3193H344.904ZM363.972 22.3203L363.33 24.2145L363.335 24.2161L363.972 22.3203ZM368.22 25.7383L366.449 26.6683L366.453 26.6757L368.22 25.7383ZM349.152 43.707V41.707H347.152V43.707H349.152ZM349.152 56.5V58.5H351.152V56.5H349.152ZM344.904 56.5H342.904V58.5H344.904V56.5ZM364.631 37.335L362.859 36.408L364.631 37.335ZM364.631 27.667L362.847 28.5721L364.631 27.667ZM349.152 24.7617V22.7617H347.152V24.7617H349.152ZM349.152 40.1426H347.152V42.1426H349.152V40.1426ZM344.904 23.3193H355.622V19.3193H344.904V23.3193ZM355.622 23.3193C359.136 23.3193 361.665 23.6503 363.33 24.2145L364.614 20.4261C362.34 19.6556 359.302 19.3193 355.622 19.3193V23.3193ZM363.335 24.2161C364.911 24.7461 365.878 25.5819 366.449 26.6683L369.99 24.8083C368.868 22.672 367.003 21.2292 364.609 20.4245L363.335 24.2161ZM366.453 26.6757C367.078 27.8535 367.489 29.7532 367.489 32.5742H371.489C371.489 29.4708 371.054 26.8132 369.986 24.8008L366.453 26.6757ZM367.489 32.5742C367.489 35.1496 367.052 36.9489 366.364 38.1437L369.831 40.1395C370.998 38.1117 371.489 35.5327 371.489 32.5742H367.489ZM366.364 38.1437C365.707 39.2849 364.652 40.1691 363.029 40.7497L364.377 44.5159C366.758 43.6642 368.633 42.2209 369.831 40.1395L366.364 38.1437ZM363.029 40.7497C361.333 41.3565 358.897 41.707 355.622 41.707V45.707C359.118 45.707 362.069 45.3414 364.377 44.5159L363.029 40.7497ZM355.622 41.707H349.152V45.707H355.622V41.707ZM347.152 43.707V56.5H351.152V43.707H347.152ZM349.152 54.5H344.904V58.5H349.152V54.5ZM346.904 56.5V21.3193H342.904V56.5H346.904ZM355.622 42.1426C358.392 42.1426 360.669 41.9406 362.321 41.4491L361.179 37.6153C360.096 37.9377 358.288 38.1426 355.622 38.1426V42.1426ZM362.321 41.4491C364.097 40.9204 365.551 39.8905 366.403 38.262L362.859 36.408C362.604 36.8953 362.137 37.3302 361.179 37.6153L362.321 41.4491ZM366.403 38.262C367.181 36.7749 367.461 34.7993 367.461 32.5742H363.461C363.461 34.5809 363.188 35.7792 362.859 36.408L366.403 38.262ZM367.461 32.5742C367.461 30.2888 367.182 28.2741 366.414 26.7619L362.847 28.5721C363.187 29.2409 363.461 30.4976 363.461 32.5742H367.461ZM366.414 26.7619C365.574 25.1064 364.13 24.0396 362.341 23.4859L361.159 27.3071C362.104 27.5997 362.581 28.0466 362.847 28.5721L366.414 26.7619ZM362.341 23.4859C360.681 22.9719 358.395 22.7617 355.622 22.7617V26.7617C358.286 26.7617 360.085 26.9747 361.159 27.3071L362.341 23.4859ZM355.622 22.7617H349.152V26.7617H355.622V22.7617ZM347.152 24.7617V40.1426H351.152V24.7617H347.152ZM349.152 42.1426H355.622V38.1426H349.152V42.1426Z" fill="white"/>
<path d="M116.934 71.835H120.792C122.087 71.835 123.089 71.9551 123.798 72.1953C124.513 72.4355 125.022 72.8457 125.327 73.4258C125.632 74 125.784 74.8203 125.784 75.8867C125.784 76.8828 125.617 77.6709 125.283 78.251C124.949 78.8311 124.422 79.25 123.701 79.5078C122.98 79.7656 122.011 79.8945 120.792 79.8945H118.463V84.5H116.934V71.835ZM120.792 78.6113C121.771 78.6113 122.506 78.5381 122.998 78.3916C123.49 78.2451 123.836 77.9814 124.035 77.6006C124.234 77.2197 124.334 76.6484 124.334 75.8867C124.334 75.1016 124.234 74.5127 124.035 74.1201C123.836 73.7275 123.49 73.4551 122.998 73.3027C122.506 73.1504 121.771 73.0742 120.792 73.0742H118.463V78.6113H120.792ZM129.42 71.835H130.949V83.208H136.882V84.5H129.42V71.835ZM143.233 71.835H145L149.842 84.5H148.295L147.091 81.3271H141.203L140.007 84.5H138.452L143.233 71.835ZM146.669 80.0879L144.121 73.127L141.616 80.0879H146.669ZM156.739 84.7549C155.649 84.7549 154.773 84.6406 154.111 84.4121C153.454 84.1777 152.971 83.8086 152.66 83.3047C152.35 82.7949 152.195 82.1211 152.195 81.2832H153.645C153.645 81.834 153.744 82.2646 153.944 82.5752C154.143 82.8799 154.468 83.0996 154.919 83.2344C155.37 83.3633 155.997 83.4277 156.8 83.4277C157.533 83.4277 158.113 83.3486 158.54 83.1904C158.968 83.0322 159.276 82.7832 159.463 82.4434C159.657 82.0977 159.753 81.6348 159.753 81.0547C159.753 80.5332 159.642 80.1113 159.419 79.7891C159.197 79.4668 158.819 79.2061 158.285 79.0068C157.752 78.8018 157.002 78.6289 156.035 78.4883C154.711 78.2949 153.744 77.9053 153.135 77.3193C152.532 76.7275 152.23 75.9072 152.23 74.8584C152.23 73.7217 152.605 72.8809 153.355 72.3359C154.105 71.791 155.259 71.5186 156.818 71.5186C157.814 71.5186 158.611 71.627 159.208 71.8438C159.806 72.0547 160.242 72.3945 160.518 72.8633C160.793 73.332 160.931 73.9561 160.931 74.7354H159.533C159.533 74.249 159.446 73.8711 159.27 73.6016C159.094 73.332 158.801 73.1416 158.391 73.0303C157.987 72.9131 157.418 72.8545 156.686 72.8545C155.977 72.8545 155.408 72.9219 154.981 73.0566C154.559 73.1855 154.248 73.3936 154.049 73.6807C153.856 73.9678 153.759 74.3486 153.759 74.8232C153.759 75.3213 153.862 75.7197 154.067 76.0186C154.272 76.3115 154.629 76.5547 155.139 76.748C155.649 76.9355 156.387 77.1055 157.354 77.2578C158.719 77.4688 159.715 77.876 160.342 78.4795C160.969 79.083 161.283 79.918 161.283 80.9844C161.283 82.2734 160.916 83.2256 160.184 83.8408C159.451 84.4502 158.303 84.7549 156.739 84.7549ZM167.247 73.1797H163.318V71.835H172.696V73.1797H168.768V84.5088H167.247V73.1797ZM175.681 83.208H177.439V73.127H175.585V71.835H180.788V73.127H178.969V83.208H180.726V84.5H175.681V83.208ZM190.128 84.8428C188.2 84.8428 186.773 84.3066 185.847 83.2344C184.921 82.1621 184.459 80.5068 184.459 78.2686C184.459 75.9951 184.939 74.3105 185.9 73.2148C186.861 72.1133 188.34 71.5625 190.338 71.5625C191.37 71.5625 192.246 71.7119 192.966 72.0107C193.687 72.3096 194.232 72.749 194.601 73.3291C194.97 73.9033 195.149 74.6006 195.137 75.4209H193.652C193.652 74.6064 193.365 73.9795 192.791 73.54C192.216 73.1006 191.399 72.8809 190.338 72.8809C189.295 72.8809 188.461 73.0596 187.834 73.417C187.212 73.7744 186.758 74.3428 186.471 75.1221C186.184 75.8955 186.041 76.9297 186.041 78.2246C186.041 79.5137 186.175 80.5449 186.445 81.3184C186.714 82.0859 187.139 82.6484 187.719 83.0059C188.305 83.3574 189.087 83.5332 190.066 83.5332C191.214 83.5332 192.099 83.3135 192.72 82.874C193.341 82.4287 193.652 81.7988 193.652 80.9844H195.137C195.149 81.8047 194.961 82.5049 194.575 83.085C194.194 83.6592 193.626 84.0957 192.87 84.3945C192.12 84.6934 191.206 84.8428 190.128 84.8428ZM208.622 84.7549C207.532 84.7549 206.656 84.6406 205.994 84.4121C205.338 84.1777 204.855 83.8086 204.544 83.3047C204.233 82.7949 204.078 82.1211 204.078 81.2832H205.528C205.528 81.834 205.628 82.2646 205.827 82.5752C206.026 82.8799 206.352 83.0996 206.803 83.2344C207.254 83.3633 207.881 83.4277 208.684 83.4277C209.416 83.4277 209.996 83.3486 210.424 83.1904C210.852 83.0322 211.159 82.7832 211.347 82.4434C211.54 82.0977 211.637 81.6348 211.637 81.0547C211.637 80.5332 211.525 80.1113 211.303 79.7891C211.08 79.4668 210.702 79.2061 210.169 79.0068C209.636 78.8018 208.886 78.6289 207.919 78.4883C206.595 78.2949 205.628 77.9053 205.019 77.3193C204.415 76.7275 204.113 75.9072 204.113 74.8584C204.113 73.7217 204.488 72.8809 205.238 72.3359C205.988 71.791 207.143 71.5186 208.701 71.5186C209.697 71.5186 210.494 71.627 211.092 71.8438C211.69 72.0547 212.126 72.3945 212.401 72.8633C212.677 73.332 212.815 73.9561 212.815 74.7354H211.417C211.417 74.249 211.329 73.8711 211.153 73.6016C210.978 73.332 210.685 73.1416 210.274 73.0303C209.87 72.9131 209.302 72.8545 208.569 72.8545C207.86 72.8545 207.292 72.9219 206.864 73.0566C206.442 73.1855 206.132 73.3936 205.933 73.6807C205.739 73.9678 205.643 74.3486 205.643 74.8232C205.643 75.3213 205.745 75.7197 205.95 76.0186C206.155 76.3115 206.513 76.5547 207.023 76.748C207.532 76.9355 208.271 77.1055 209.237 77.2578C210.603 77.4688 211.599 77.876 212.226 78.4795C212.853 79.083 213.166 79.918 213.166 80.9844C213.166 82.2734 212.8 83.2256 212.067 83.8408C211.335 84.4502 210.187 84.7549 208.622 84.7549ZM221.89 84.9219C220.806 84.9219 219.884 84.7227 219.122 84.3242C218.36 83.9258 217.78 83.3457 217.382 82.584C216.989 81.8164 216.793 80.8906 216.793 79.8066V71.835H218.322V79.833C218.322 81.0225 218.63 81.9395 219.245 82.584C219.866 83.2227 220.748 83.542 221.89 83.542C223.027 83.542 223.903 83.2197 224.518 82.5752C225.139 81.9307 225.45 81.0166 225.45 79.833V71.835H226.979V79.8066C226.979 80.8906 226.78 81.8164 226.382 82.584C225.989 83.3457 225.412 83.9258 224.65 84.3242C223.894 84.7227 222.974 84.9219 221.89 84.9219ZM241.004 84.5H239.457L238.745 81.2393C238.604 80.5947 238.431 80.1084 238.226 79.7803C238.027 79.4463 237.743 79.2148 237.374 79.0859C237.01 78.9512 236.492 78.8838 235.818 78.8838H233.287V84.5H231.757V71.835H235.932C237.139 71.835 238.077 71.9434 238.745 72.1602C239.413 72.377 239.89 72.7373 240.177 73.2412C240.464 73.7451 240.608 74.4512 240.608 75.3594C240.608 76.1738 240.403 76.8096 239.993 77.2666C239.588 77.7236 238.915 78.0371 237.971 78.207C238.534 78.3301 238.95 78.4912 239.219 78.6904C239.495 78.8838 239.691 79.1328 239.808 79.4375C239.925 79.7363 240.054 80.2197 240.195 80.8877C240.207 80.9346 240.218 80.9902 240.23 81.0547C240.248 81.1191 240.265 81.1953 240.283 81.2832L241.004 84.5ZM235.818 77.6006C238.027 77.6006 239.131 76.8535 239.131 75.3594C239.131 74.7852 239.032 74.3398 238.833 74.0234C238.633 73.707 238.302 73.4814 237.839 73.3467C237.377 73.2061 236.729 73.1357 235.897 73.1357H233.287V77.6006H235.818ZM254.922 78.3125V84.5879H253.832L253.683 82.7949C253.308 83.4922 252.804 84.0078 252.171 84.3418C251.538 84.6758 250.753 84.8428 249.816 84.8428C247.882 84.8428 246.452 84.3096 245.527 83.2432C244.607 82.1768 244.147 80.5215 244.147 78.2773C244.147 75.9922 244.61 74.3018 245.536 73.2061C246.467 72.1104 247.897 71.5625 249.825 71.5625C250.897 71.5625 251.808 71.7119 252.558 72.0107C253.314 72.3096 253.882 72.749 254.263 73.3291C254.65 73.9033 254.837 74.6006 254.826 75.4209H253.34C253.34 74.6064 253.038 73.9795 252.435 73.54C251.831 73.1006 250.97 72.8809 249.851 72.8809C248.451 72.8809 247.413 73.3174 246.74 74.1904C246.066 75.0635 245.729 76.4082 245.729 78.2246C245.729 79.4316 245.849 80.4189 246.089 81.1865C246.335 81.9541 246.757 82.5371 247.355 82.9355C247.952 83.334 248.773 83.5332 249.816 83.5332C250.958 83.5332 251.84 83.2637 252.461 82.7246C253.082 82.1797 253.393 81.4092 253.393 80.4131V79.7188H249.552V78.3125H254.922ZM259.384 71.835H267.821V73.1709H260.913V77.2314H266.784V78.5498H260.913V83.1641H267.848V84.5H259.384V71.835ZM280.852 84.5H279.306L278.594 81.2393C278.453 80.5947 278.28 80.1084 278.075 79.7803C277.876 79.4463 277.592 79.2148 277.223 79.0859C276.859 78.9512 276.341 78.8838 275.667 78.8838H273.136V84.5H271.606V71.835H275.781C276.988 71.835 277.926 71.9434 278.594 72.1602C279.262 72.377 279.739 72.7373 280.026 73.2412C280.313 73.7451 280.457 74.4512 280.457 75.3594C280.457 76.1738 280.252 76.8096 279.842 77.2666C279.437 77.7236 278.764 78.0371 277.82 78.207C278.383 78.3301 278.799 78.4912 279.068 78.6904C279.344 78.8838 279.54 79.1328 279.657 79.4375C279.774 79.7363 279.903 80.2197 280.044 80.8877C280.056 80.9346 280.067 80.9902 280.079 81.0547C280.097 81.1191 280.114 81.1953 280.132 81.2832L280.852 84.5ZM275.667 77.6006C277.876 77.6006 278.98 76.8535 278.98 75.3594C278.98 74.7852 278.881 74.3398 278.682 74.0234C278.482 73.707 278.151 73.4814 277.688 73.3467C277.225 73.2061 276.578 73.1357 275.746 73.1357H273.136V77.6006H275.667ZM287.107 79.2617L282.809 71.835H284.426L287.757 77.7061H288.004L291.379 71.835H292.969L288.636 79.2617V84.5H287.107V79.2617ZM306.428 84.8428C304.5 84.8428 303.073 84.3066 302.148 83.2344C301.222 82.1621 300.759 80.5068 300.759 78.2686C300.759 75.9951 301.239 74.3105 302.2 73.2148C303.161 72.1133 304.641 71.5625 306.639 71.5625C307.67 71.5625 308.546 71.7119 309.267 72.0107C309.987 72.3096 310.532 72.749 310.902 73.3291C311.271 73.9033 311.449 74.6006 311.438 75.4209H309.952C309.952 74.6064 309.665 73.9795 309.091 73.54C308.517 73.1006 307.699 72.8809 306.639 72.8809C305.596 72.8809 304.761 73.0596 304.134 73.417C303.513 73.7744 303.059 74.3428 302.772 75.1221C302.485 75.8955 302.341 76.9297 302.341 78.2246C302.341 79.5137 302.476 80.5449 302.745 81.3184C303.015 82.0859 303.44 82.6484 304.02 83.0059C304.606 83.3574 305.388 83.5332 306.366 83.5332C307.515 83.5332 308.4 83.3135 309.021 82.874C309.642 82.4287 309.952 81.7988 309.952 80.9844H311.438C311.449 81.8047 311.262 82.5049 310.875 83.085C310.494 83.6592 309.926 84.0957 309.17 84.3945C308.42 84.6934 307.506 84.8428 306.428 84.8428ZM315.328 71.835H323.766V73.1709H316.857V77.2314H322.728V78.5498H316.857V83.1641H323.792V84.5H315.328V71.835ZM327.55 71.835H329.871L336.814 82.9795H337.095V71.835H338.466V84.5H336.199L329.124 73.2061H328.834L328.922 84.5H327.55V71.835ZM345.714 73.1797H341.786V71.835H351.164V73.1797H347.235V84.5088H345.714V73.1797ZM354.491 71.835H362.929V73.1709H356.021V77.2314H361.892V78.5498H356.021V83.1641H362.955V84.5H354.491V71.835ZM375.96 84.5H374.413L373.701 81.2393C373.561 80.5947 373.388 80.1084 373.183 79.7803C372.983 79.4463 372.699 79.2148 372.33 79.0859C371.967 78.9512 371.448 78.8838 370.774 78.8838H368.243V84.5H366.714V71.835H370.889C372.096 71.835 373.033 71.9434 373.701 72.1602C374.369 72.377 374.847 72.7373 375.134 73.2412C375.421 73.7451 375.564 74.4512 375.564 75.3594C375.564 76.1738 375.359 76.8096 374.949 77.2666C374.545 77.7236 373.871 78.0371 372.928 78.207C373.49 78.3301 373.906 78.4912 374.176 78.6904C374.451 78.8838 374.647 79.1328 374.765 79.4375C374.882 79.7363 375.011 80.2197 375.151 80.8877C375.163 80.9346 375.175 80.9902 375.186 81.0547C375.204 81.1191 375.222 81.1953 375.239 81.2832L375.96 84.5ZM370.774 77.6006C372.983 77.6006 374.088 76.8535 374.088 75.3594C374.088 74.7852 373.988 74.3398 373.789 74.0234C373.59 73.707 373.259 73.4814 372.796 73.3467C372.333 73.2061 371.686 73.1357 370.853 73.1357H368.243V77.6006H370.774Z" fill="#323232"/>
<path d="M116.934 71.835V71.335H116.434V71.835H116.934ZM123.798 72.1953L123.637 72.6689L123.639 72.6693L123.798 72.1953ZM125.327 73.4258L124.884 73.6583L124.885 73.6601L125.327 73.4258ZM118.463 79.8945V79.3945H117.963V79.8945H118.463ZM118.463 84.5V85H118.963V84.5H118.463ZM116.934 84.5H116.434V85H116.934V84.5ZM118.463 73.0742V72.5742H117.963V73.0742H118.463ZM118.463 78.6113H117.963V79.1113H118.463V78.6113ZM116.934 72.335H120.792V71.335H116.934V72.335ZM120.792 72.335C122.066 72.335 123.004 72.4544 123.637 72.6689L123.958 71.7218C123.173 71.4557 122.108 71.335 120.792 71.335V72.335ZM123.639 72.6693C124.251 72.8752 124.649 73.2094 124.884 73.6583L125.77 73.1933C125.396 72.482 124.774 71.9959 123.957 71.7214L123.639 72.6693ZM124.885 73.6601C125.135 74.13 125.284 74.8556 125.284 75.8867H126.284C126.284 74.785 126.129 73.87 125.769 73.1914L124.885 73.6601ZM125.284 75.8867C125.284 76.8349 125.124 77.5256 124.85 78.0015L125.717 78.5005C126.11 77.8162 126.284 76.9307 126.284 75.8867H125.284ZM124.85 78.0015C124.584 78.4641 124.159 78.8131 123.533 79.037L123.87 79.9786C124.685 79.6869 125.315 79.1981 125.717 78.5005L124.85 78.0015ZM123.533 79.037C122.888 79.2675 121.983 79.3945 120.792 79.3945V80.3945C122.038 80.3945 123.072 80.2637 123.87 79.9786L123.533 79.037ZM120.792 79.3945H118.463V80.3945H120.792V79.3945ZM117.963 79.8945V84.5H118.963V79.8945H117.963ZM118.463 84H116.934V85H118.463V84ZM117.434 84.5V71.835H116.434V84.5H117.434ZM120.792 79.1113C121.783 79.1113 122.577 79.0384 123.141 78.8708L122.855 77.9124C122.434 78.0377 121.758 78.1113 120.792 78.1113V79.1113ZM123.141 78.8708C123.735 78.6939 124.204 78.3558 124.478 77.8323L123.592 77.3688C123.468 77.607 123.245 77.7963 122.855 77.9124L123.141 78.8708ZM124.478 77.8323C124.734 77.3442 124.834 76.6757 124.834 75.8867H123.834C123.834 76.6211 123.735 77.0953 123.592 77.3688L124.478 77.8323ZM124.834 75.8867C124.834 75.0755 124.734 74.3918 124.481 73.8939L123.589 74.3464C123.735 74.6336 123.834 75.1277 123.834 75.8867H124.834ZM124.481 73.8939C124.21 73.36 123.743 73.0101 123.146 72.8251L122.85 73.7804C123.237 73.9001 123.462 74.0951 123.589 74.3464L124.481 73.8939ZM123.146 72.8251C122.58 72.65 121.784 72.5742 120.792 72.5742V73.5742C121.757 73.5742 122.431 73.6507 122.85 73.7804L123.146 72.8251ZM120.792 72.5742H118.463V73.5742H120.792V72.5742ZM117.963 73.0742V78.6113H118.963V73.0742H117.963ZM118.463 79.1113H120.792V78.1113H118.463V79.1113ZM129.42 71.835V71.335H128.92V71.835H129.42ZM130.949 71.835H131.449V71.335H130.949V71.835ZM130.949 83.208H130.449V83.708H130.949V83.208ZM136.882 83.208H137.382V82.708H136.882V83.208ZM136.882 84.5V85H137.382V84.5H136.882ZM129.42 84.5H128.92V85H129.42V84.5ZM129.42 72.335H130.949V71.335H129.42V72.335ZM130.449 71.835V83.208H131.449V71.835H130.449ZM130.949 83.708H136.882V82.708H130.949V83.708ZM136.382 83.208V84.5H137.382V83.208H136.382ZM136.882 84H129.42V85H136.882V84ZM129.92 84.5V71.835H128.92V84.5H129.92ZM143.233 71.835V71.335H142.887L142.765 71.6584L143.233 71.835ZM145 71.835L145.467 71.6564L145.344 71.335H145V71.835ZM149.842 84.5V85H150.569L150.309 84.3214L149.842 84.5ZM148.295 84.5L147.828 84.6774L147.95 85H148.295V84.5ZM147.091 81.3271L147.559 81.1497L147.436 80.8271H147.091V81.3271ZM141.203 81.3271V80.8271H140.857L140.735 81.1509L141.203 81.3271ZM140.007 84.5V85H140.353L140.475 84.6763L140.007 84.5ZM138.452 84.5L137.984 84.3234L137.728 85H138.452V84.5ZM146.669 80.0879V80.5879H147.385L147.139 79.916L146.669 80.0879ZM144.121 73.127L144.59 72.955L144.117 71.6616L143.65 72.9577L144.121 73.127ZM141.616 80.0879L141.145 79.9186L140.904 80.5879H141.616V80.0879ZM143.233 72.335H145V71.335H143.233V72.335ZM144.533 72.0135L149.375 84.6786L150.309 84.3214L145.467 71.6564L144.533 72.0135ZM149.842 84H148.295V85H149.842V84ZM148.763 84.3226L147.559 81.1497L146.624 81.5046L147.828 84.6774L148.763 84.3226ZM147.091 80.8271H141.203V81.8271H147.091V80.8271ZM140.735 81.1509L139.539 84.3237L140.475 84.6763L141.671 81.5034L140.735 81.1509ZM140.007 84H138.452V85H140.007V84ZM138.919 84.6766L143.701 72.0116L142.765 71.6584L137.984 84.3234L138.919 84.6766ZM147.139 79.916L144.59 72.955L143.651 73.2989L146.2 80.2598L147.139 79.916ZM143.65 72.9577L141.145 79.9186L142.086 80.2572L144.591 73.2962L143.65 72.9577ZM141.616 80.5879H146.669V79.5879H141.616V80.5879ZM154.111 84.4121L153.942 84.883L153.948 84.8848L154.111 84.4121ZM152.66 83.3047L152.233 83.5648L152.235 83.567L152.66 83.3047ZM152.195 81.2832V80.7832H151.695V81.2832H152.195ZM153.645 81.2832H154.145V80.7832H153.645V81.2832ZM153.944 82.5752L153.523 82.8452L153.525 82.8488L153.944 82.5752ZM154.919 83.2344L154.776 83.7135L154.782 83.7151L154.919 83.2344ZM159.463 82.4434L159.027 82.1993L159.025 82.2018L159.463 82.4434ZM158.285 79.0068L158.106 79.4735L158.11 79.4752L158.285 79.0068ZM156.035 78.4883L155.963 78.983L155.963 78.9831L156.035 78.4883ZM153.135 77.3193L152.785 77.6764L152.788 77.6798L153.135 77.3193ZM159.208 71.8438L159.038 72.3138L159.042 72.3152L159.208 71.8438ZM160.931 74.7354V75.2354H161.431V74.7354H160.931ZM159.533 74.7354H159.033V75.2354H159.533V74.7354ZM158.391 73.0303L158.252 73.5106L158.26 73.5128L158.391 73.0303ZM154.981 73.0566L155.127 73.5348L155.131 73.5335L154.981 73.0566ZM154.049 73.6807L153.638 73.3956L153.634 73.4014L154.049 73.6807ZM154.067 76.0186L153.654 76.3015L153.657 76.3053L154.067 76.0186ZM155.139 76.748L154.962 77.2156L154.966 77.2173L155.139 76.748ZM157.354 77.2578L157.276 77.7517L157.277 77.7519L157.354 77.2578ZM160.184 83.8408L160.504 84.2252L160.505 84.2237L160.184 83.8408ZM156.739 84.2549C155.677 84.2549 154.863 84.1427 154.274 83.9395L153.948 84.8848C154.683 85.1385 155.621 85.2549 156.739 85.2549V84.2549ZM154.279 83.9412C153.71 83.738 153.327 83.433 153.086 83.0424L152.235 83.567C152.615 84.1842 153.199 84.6174 153.942 84.883L154.279 83.9412ZM153.087 83.0446C152.84 82.6387 152.695 82.0647 152.695 81.2832H151.695C151.695 82.1775 151.86 82.9512 152.233 83.5648L153.087 83.0446ZM152.195 81.7832H153.645V80.7832H152.195V81.7832ZM153.145 81.2832C153.145 81.8855 153.252 82.4236 153.523 82.8452L154.364 82.3052C154.237 82.1057 154.145 81.7824 154.145 81.2832H153.145ZM153.525 82.8488C153.806 83.2784 154.246 83.555 154.776 83.7135L155.062 82.7553C154.69 82.6442 154.48 82.4814 154.362 82.3016L153.525 82.8488ZM154.782 83.7151C155.298 83.8627 155.979 83.9277 156.8 83.9277V82.9277C156.016 82.9277 155.442 82.8639 155.057 82.7536L154.782 83.7151ZM156.8 83.9277C157.56 83.9277 158.207 83.8468 158.714 83.6594L158.367 82.7215C158.018 82.8505 157.505 82.9277 156.8 82.9277V83.9277ZM158.714 83.6594C159.233 83.4672 159.646 83.1477 159.901 82.6849L159.025 82.2018C158.906 82.4187 158.703 82.5972 158.367 82.7215L158.714 83.6594ZM159.9 82.6874C160.15 82.2404 160.253 81.6832 160.253 81.0547H159.253C159.253 81.5863 159.163 81.9549 159.027 82.1993L159.9 82.6874ZM160.253 81.0547C160.253 80.4648 160.127 79.9343 159.831 79.5048L159.008 80.0733C159.156 80.2884 159.253 80.6016 159.253 81.0547H160.253ZM159.831 79.5048C159.529 79.0682 159.048 78.758 158.46 78.5385L158.11 79.4752C158.589 79.6541 158.864 79.8653 159.008 80.0733L159.831 79.5048ZM158.465 78.5402C157.881 78.3156 157.089 78.1363 156.107 77.9935L155.963 78.9831C156.915 79.1215 157.623 79.2879 158.106 79.4735L158.465 78.5402ZM156.108 77.9935C154.831 77.8071 153.983 77.4415 153.482 76.9589L152.788 77.6798C153.505 78.3691 154.591 78.7827 155.963 78.983L156.108 77.9935ZM153.485 76.9623C153 76.4862 152.73 75.8073 152.73 74.8584H151.73C151.73 76.0072 152.064 76.9689 152.785 77.6763L153.485 76.9623ZM152.73 74.8584C152.73 73.8411 153.058 73.1697 153.649 72.7404L153.061 71.9314C152.152 72.592 151.73 73.6023 151.73 74.8584H152.73ZM153.649 72.7404C154.272 72.2872 155.3 72.0186 156.818 72.0186V71.0186C155.218 71.0186 153.937 71.2948 153.061 71.9314L153.649 72.7404ZM156.818 72.0186C157.785 72.0186 158.517 72.1248 159.038 72.3138L159.379 71.3737C158.705 71.1291 157.843 71.0186 156.818 71.0186V72.0186ZM159.042 72.3152C159.548 72.4938 159.881 72.7659 160.087 73.1166L160.949 72.61C160.604 72.0231 160.064 71.6156 159.375 71.3723L159.042 72.3152ZM160.087 73.1166C160.302 73.4823 160.431 74.0087 160.431 74.7354H161.431C161.431 73.9034 161.285 73.1818 160.949 72.61L160.087 73.1166ZM160.931 74.2354H159.533V75.2354H160.931V74.2354ZM160.033 74.7354C160.033 74.1983 159.938 73.7108 159.689 73.3284L158.851 73.8747C158.953 74.0314 159.033 74.2997 159.033 74.7354H160.033ZM159.689 73.3284C159.427 72.9269 159.012 72.6807 158.522 72.5477L158.26 73.5128C158.59 73.6025 158.761 73.7372 158.851 73.8747L159.689 73.3284ZM158.53 72.55C158.059 72.4135 157.436 72.3545 156.686 72.3545V73.3545C157.4 73.3545 157.914 73.4126 158.252 73.5105L158.53 72.55ZM156.686 72.3545C155.952 72.3545 155.327 72.4234 154.83 72.5798L155.131 73.5335C155.49 73.4203 156.002 73.3545 156.686 73.3545V72.3545ZM154.835 72.5785C154.334 72.7314 153.917 72.9943 153.638 73.3956L154.46 73.9657C154.58 73.7928 154.784 73.6397 155.127 73.5348L154.835 72.5785ZM153.634 73.4014C153.368 73.7965 153.259 74.285 153.259 74.8232H154.259C154.259 74.4123 154.343 74.1391 154.464 73.96L153.634 73.4014ZM153.259 74.8232C153.259 75.3855 153.374 75.8935 153.654 76.3015L154.479 75.7356C154.349 75.546 154.259 75.257 154.259 74.8232H153.259ZM153.657 76.3053C153.943 76.7132 154.404 77.004 154.962 77.2155L155.316 76.2805C154.854 76.1053 154.601 75.9099 154.476 75.7318L153.657 76.3053ZM154.966 77.2173C155.522 77.4217 156.298 77.5976 157.276 77.7517L157.432 76.7639C156.476 76.6133 155.775 76.4494 155.312 76.2788L154.966 77.2173ZM157.277 77.7519C158.596 77.9557 159.475 78.3384 159.995 78.8397L160.689 78.1193C159.956 77.4135 158.842 76.9818 157.43 76.7637L157.277 77.7519ZM159.995 78.8397C160.503 79.3284 160.783 80.0211 160.783 80.9844H161.783C161.783 79.8148 161.435 78.8376 160.689 78.1193L159.995 78.8397ZM160.783 80.9844C160.783 82.1801 160.446 82.9679 159.862 83.458L160.505 84.2237C161.387 83.4833 161.783 82.3668 161.783 80.9844H160.783ZM159.864 83.4565C159.263 83.9562 158.256 84.2549 156.739 84.2549V85.2549C158.35 85.2549 159.64 84.9442 160.504 84.2252L159.864 83.4565ZM167.247 73.1797H167.747V72.6797H167.247V73.1797ZM163.318 73.1797H162.818V73.6797H163.318V73.1797ZM163.318 71.835V71.335H162.818V71.835H163.318ZM172.696 71.835H173.196V71.335H172.696V71.835ZM172.696 73.1797V73.6797H173.196V73.1797H172.696ZM168.768 73.1797V72.6797H168.268V73.1797H168.768ZM168.768 84.5088V85.0088H169.268V84.5088H168.768ZM167.247 84.5088H166.747V85.0088H167.247V84.5088ZM167.247 72.6797H163.318V73.6797H167.247V72.6797ZM163.818 73.1797V71.835H162.818V73.1797H163.818ZM163.318 72.335H172.696V71.335H163.318V72.335ZM172.196 71.835V73.1797H173.196V71.835H172.196ZM172.696 72.6797H168.768V73.6797H172.696V72.6797ZM168.268 73.1797V84.5088H169.268V73.1797H168.268ZM168.768 84.0088H167.247V85.0088H168.768V84.0088ZM167.747 84.5088V73.1797H166.747V84.5088H167.747ZM175.681 83.208V82.708H175.181V83.208H175.681ZM177.439 83.208V83.708H177.939V83.208H177.439ZM177.439 73.127H177.939V72.627H177.439V73.127ZM175.585 73.127H175.085V73.627H175.585V73.127ZM175.585 71.835V71.335H175.085V71.835H175.585ZM180.788 71.835H181.288V71.335H180.788V71.835ZM180.788 73.127V73.627H181.288V73.127H180.788ZM178.969 73.127V72.627H178.469V73.127H178.969ZM178.969 83.208H178.469V83.708H178.969V83.208ZM180.726 83.208H181.226V82.708H180.726V83.208ZM180.726 84.5V85H181.226V84.5H180.726ZM175.681 84.5H175.181V85H175.681V84.5ZM175.681 83.708H177.439V82.708H175.681V83.708ZM177.939 83.208V73.127H176.939V83.208H177.939ZM177.439 72.627H175.585V73.627H177.439V72.627ZM176.085 73.127V71.835H175.085V73.127H176.085ZM175.585 72.335H180.788V71.335H175.585V72.335ZM180.288 71.835V73.127H181.288V71.835H180.288ZM180.788 72.627H178.969V73.627H180.788V72.627ZM178.469 73.127V83.208H179.469V73.127H178.469ZM178.969 83.708H180.726V82.708H178.969V83.708ZM180.226 83.208V84.5H181.226V83.208H180.226ZM180.726 84H175.681V85H180.726V84ZM176.181 84.5V83.208H175.181V84.5H176.181ZM185.9 73.2148L186.276 73.5445L186.277 73.5435L185.9 73.2148ZM194.601 73.3291L194.179 73.5975L194.181 73.5995L194.601 73.3291ZM195.137 75.4209V75.9209H195.63L195.637 75.428L195.137 75.4209ZM193.652 75.4209H193.152V75.9209H193.652V75.4209ZM187.834 73.417L187.586 72.9826L187.584 72.9836L187.834 73.417ZM186.471 75.1221L186.94 75.2961L186.94 75.2949L186.471 75.1221ZM186.445 81.3184L185.973 81.4829L185.973 81.484L186.445 81.3184ZM187.719 83.0059L187.457 83.4316L187.462 83.4346L187.719 83.0059ZM192.72 82.874L193.009 83.2822L193.012 83.2804L192.72 82.874ZM193.652 80.9844V80.4844H193.152V80.9844H193.652ZM195.137 80.9844L195.637 80.9772L195.63 80.4844H195.137V80.9844ZM194.575 83.085L194.159 82.8076L194.158 82.8086L194.575 83.085ZM192.87 84.3945L192.686 83.9296L192.685 83.93L192.87 84.3945ZM190.128 84.3428C188.29 84.3428 187.026 83.8341 186.226 82.9076L185.469 83.5611C186.52 84.7792 188.11 85.3428 190.128 85.3428V84.3428ZM186.226 82.9076C185.413 81.966 184.959 80.4528 184.959 78.2686H183.959C183.959 80.5609 184.43 82.3582 185.469 83.5611L186.226 82.9076ZM184.959 78.2686C184.959 76.0516 185.429 74.5099 186.276 73.5445L185.524 72.8852C184.449 74.1112 183.959 75.9386 183.959 78.2686H184.959ZM186.277 73.5435C187.112 72.5866 188.429 72.0625 190.338 72.0625V71.0625C188.251 71.0625 186.61 71.64 185.523 72.8862L186.277 73.5435ZM190.338 72.0625C191.324 72.0625 192.131 72.2056 192.775 72.4726L193.158 71.5489C192.36 71.2182 191.415 71.0625 190.338 71.0625V72.0625ZM192.775 72.4726C193.414 72.7376 193.872 73.1154 194.179 73.5975L195.023 73.0607C194.591 72.3826 193.96 71.8815 193.158 71.5489L192.775 72.4726ZM194.181 73.5995C194.487 74.0756 194.648 74.6716 194.637 75.4138L195.637 75.428C195.65 74.5295 195.454 73.7311 195.022 73.0587L194.181 73.5995ZM195.137 74.9209H193.652V75.9209H195.137V74.9209ZM194.152 75.4209C194.152 74.4732 193.809 73.6899 193.094 73.143L192.487 73.9371C192.921 74.2691 193.152 74.7396 193.152 75.4209H194.152ZM193.094 73.143C192.401 72.612 191.46 72.3809 190.338 72.3809V73.3809C191.338 73.3809 192.032 73.5892 192.487 73.9371L193.094 73.143ZM190.338 72.3809C189.245 72.3809 188.315 72.5672 187.586 72.9826L188.081 73.8514C188.606 73.5519 189.346 73.3809 190.338 73.3809V72.3809ZM187.584 72.9836C186.846 73.4086 186.323 74.0784 186.002 74.9492L186.94 75.2949C187.194 74.6071 187.579 74.1403 188.083 73.8504L187.584 72.9836ZM186.003 74.9481C185.686 75.7997 185.541 76.9002 185.541 78.2246H186.541C186.541 76.9592 186.682 75.9914 186.94 75.2961L186.003 74.9481ZM185.541 78.2246C185.541 79.5414 185.677 80.6352 185.973 81.4829L186.917 81.1538C186.673 80.4547 186.541 79.486 186.541 78.2246H185.541ZM185.973 81.484C186.273 82.3379 186.761 83.0029 187.457 83.4315L187.982 82.5802C187.517 82.294 187.156 81.834 186.917 81.1527L185.973 81.484ZM187.462 83.4346C188.152 83.8487 189.034 84.0332 190.066 84.0332V83.0332C189.141 83.0332 188.458 82.8661 187.977 82.5771L187.462 83.4346ZM190.066 84.0332C191.268 84.0332 192.27 83.8048 193.009 83.2822L192.431 82.4659C191.928 82.8222 191.161 83.0332 190.066 83.0332V84.0332ZM193.012 83.2804C193.773 82.7341 194.152 81.9476 194.152 80.9844H193.152C193.152 81.6501 192.909 82.1233 192.429 82.4677L193.012 83.2804ZM193.652 81.4844H195.137V80.4844H193.652V81.4844ZM194.637 80.9915C194.648 81.729 194.48 82.3257 194.159 82.8076L194.991 83.3623C195.443 82.684 195.65 81.8804 195.637 80.9772L194.637 80.9915ZM194.158 82.8086C193.843 83.2832 193.364 83.6614 192.686 83.9296L193.054 84.8595C193.887 84.53 194.544 84.0352 194.991 83.3613L194.158 82.8086ZM192.685 83.93C192.01 84.199 191.162 84.3428 190.128 84.3428V85.3428C191.249 85.3428 192.23 85.1877 193.055 84.859L192.685 83.93ZM205.994 84.4121L205.826 84.883L205.831 84.8848L205.994 84.4121ZM204.544 83.3047L204.117 83.5648L204.118 83.567L204.544 83.3047ZM204.078 81.2832V80.7832H203.578V81.2832H204.078ZM205.528 81.2832H206.028V80.7832H205.528V81.2832ZM205.827 82.5752L205.406 82.8452L205.409 82.8488L205.827 82.5752ZM206.803 83.2344L206.66 83.7135L206.665 83.7151L206.803 83.2344ZM211.347 82.4434L210.91 82.1993L210.909 82.2018L211.347 82.4434ZM210.169 79.0068L209.99 79.4735L209.994 79.4752L210.169 79.0068ZM207.919 78.4883L207.847 78.983L207.847 78.9831L207.919 78.4883ZM205.019 77.3193L204.669 77.6764L204.672 77.6798L205.019 77.3193ZM211.092 71.8438L210.921 72.3138L210.925 72.3152L211.092 71.8438ZM212.815 74.7354V75.2354H213.315V74.7354H212.815ZM211.417 74.7354H210.917V75.2354H211.417V74.7354ZM210.274 73.0303L210.135 73.5106L210.144 73.5128L210.274 73.0303ZM206.864 73.0566L207.01 73.5348L207.015 73.5335L206.864 73.0566ZM205.933 73.6807L205.522 73.3956L205.518 73.4014L205.933 73.6807ZM205.95 76.0186L205.538 76.3015L205.541 76.3053L205.95 76.0186ZM207.023 76.748L206.845 77.2156L206.85 77.2173L207.023 76.748ZM209.237 77.2578L209.16 77.7517L209.161 77.7519L209.237 77.2578ZM212.067 83.8408L212.387 84.2252L212.389 84.2237L212.067 83.8408ZM208.622 84.2549C207.56 84.2549 206.746 84.1427 206.157 83.9395L205.831 84.8848C206.566 85.1385 207.504 85.2549 208.622 85.2549V84.2549ZM206.162 83.9412C205.593 83.738 205.21 83.433 204.97 83.0424L204.118 83.567C204.499 84.1842 205.083 84.6174 205.826 84.883L206.162 83.9412ZM204.971 83.0446C204.724 82.6387 204.578 82.0647 204.578 81.2832H203.578C203.578 82.1775 203.743 82.9512 204.117 83.5648L204.971 83.0446ZM204.078 81.7832H205.528V80.7832H204.078V81.7832ZM205.028 81.2832C205.028 81.8855 205.136 82.4236 205.406 82.8452L206.248 82.3052C206.12 82.1057 206.028 81.7824 206.028 81.2832H205.028ZM205.409 82.8488C205.69 83.2784 206.129 83.555 206.66 83.7135L206.946 82.7553C206.574 82.6442 206.363 82.4814 206.246 82.3016L205.409 82.8488ZM206.665 83.7151C207.182 83.8627 207.862 83.9277 208.684 83.9277V82.9277C207.899 82.9277 207.326 82.8639 206.94 82.7536L206.665 83.7151ZM208.684 83.9277C209.444 83.9277 210.091 83.8468 210.597 83.6594L210.25 82.7215C209.902 82.8505 209.388 82.9277 208.684 82.9277V83.9277ZM210.597 83.6594C211.117 83.4672 211.529 83.1477 211.785 82.6849L210.909 82.2018C210.789 82.4187 210.586 82.5972 210.25 82.7215L210.597 83.6594ZM211.783 82.6874C212.033 82.2404 212.137 81.6832 212.137 81.0547H211.137C211.137 81.5863 211.047 81.9549 210.91 82.1993L211.783 82.6874ZM212.137 81.0547C212.137 80.4648 212.011 79.9343 211.714 79.5048L210.891 80.0733C211.04 80.2884 211.137 80.6016 211.137 81.0547H212.137ZM211.714 79.5048C211.413 79.0682 210.932 78.758 210.344 78.5385L209.994 79.4752C210.473 79.6541 210.748 79.8653 210.891 80.0733L211.714 79.5048ZM210.349 78.5402C209.765 78.3156 208.973 78.1363 207.991 77.9935L207.847 78.9831C208.799 79.1215 209.507 79.2879 209.99 79.4735L210.349 78.5402ZM207.991 77.9935C206.715 77.8071 205.867 77.4415 205.365 76.9589L204.672 77.6798C205.389 78.3691 206.475 78.7827 207.847 78.983L207.991 77.9935ZM205.369 76.9623C204.883 76.4862 204.613 75.8073 204.613 74.8584H203.613C203.613 76.0072 203.947 76.9689 204.669 77.6763L205.369 76.9623ZM204.613 74.8584C204.613 73.8411 204.941 73.1697 205.532 72.7404L204.944 71.9314C204.035 72.592 203.613 73.6023 203.613 74.8584H204.613ZM205.532 72.7404C206.156 72.2872 207.183 72.0186 208.701 72.0186V71.0186C207.102 71.0186 205.821 71.2948 204.944 71.9314L205.532 72.7404ZM208.701 72.0186C209.668 72.0186 210.4 72.1248 210.921 72.3138L211.262 71.3737C210.588 71.1291 209.726 71.0186 208.701 71.0186V72.0186ZM210.925 72.3152C211.431 72.4938 211.764 72.7659 211.97 73.1166L212.833 72.61C212.488 72.0231 211.948 71.6156 211.258 71.3723L210.925 72.3152ZM211.97 73.1166C212.185 73.4823 212.315 74.0087 212.315 74.7354H213.315C213.315 73.9034 213.168 73.1818 212.833 72.61L211.97 73.1166ZM212.815 74.2354H211.417V75.2354H212.815V74.2354ZM211.917 74.7354C211.917 74.1983 211.822 73.7108 211.572 73.3284L210.735 73.8747C210.837 74.0314 210.917 74.2997 210.917 74.7354H211.917ZM211.572 73.3284C211.31 72.9269 210.895 72.6807 210.405 72.5477L210.144 73.5128C210.474 73.6025 210.645 73.7372 210.735 73.8747L211.572 73.3284ZM210.414 72.55C209.943 72.4135 209.32 72.3545 208.569 72.3545V73.3545C209.284 73.3545 209.798 73.4126 210.135 73.5105L210.414 72.55ZM208.569 72.3545C207.835 72.3545 207.21 72.4234 206.714 72.5798L207.015 73.5335C207.374 73.4203 207.885 73.3545 208.569 73.3545V72.3545ZM206.718 72.5785C206.218 72.7314 205.8 72.9943 205.522 73.3956L206.343 73.9657C206.463 73.7928 206.667 73.6397 207.01 73.5348L206.718 72.5785ZM205.518 73.4014C205.252 73.7965 205.143 74.285 205.143 74.8232H206.143C206.143 74.4123 206.227 74.1391 206.347 73.96L205.518 73.4014ZM205.143 74.8232C205.143 75.3855 205.258 75.8935 205.538 76.3015L206.363 75.7356C206.232 75.546 206.143 75.257 206.143 74.8232H205.143ZM205.541 76.3053C205.826 76.7132 206.288 77.004 206.845 77.2155L207.2 76.2805C206.738 76.1053 206.485 75.9099 206.36 75.7318L205.541 76.3053ZM206.85 77.2173C207.406 77.4217 208.182 77.5976 209.16 77.7517L209.315 76.7639C208.359 76.6133 207.659 76.4494 207.195 76.2788L206.85 77.2173ZM209.161 77.7519C210.48 77.9557 211.358 78.3384 211.879 78.8397L212.572 78.1193C211.839 77.4135 210.726 76.9818 209.314 76.7637L209.161 77.7519ZM211.879 78.8397C212.387 79.3284 212.666 80.0211 212.666 80.9844H213.666C213.666 79.8148 213.319 78.8376 212.572 78.1193L211.879 78.8397ZM212.666 80.9844C212.666 82.1801 212.329 82.9679 211.746 83.458L212.389 84.2237C213.27 83.4833 213.666 82.3668 213.666 80.9844H212.666ZM211.748 83.4565C211.147 83.9562 210.139 84.2549 208.622 84.2549V85.2549C210.234 85.2549 211.523 84.9442 212.387 84.2252L211.748 83.4565ZM217.382 82.584L216.937 82.8117L216.939 82.8157L217.382 82.584ZM216.793 71.835V71.335H216.293V71.835H216.793ZM218.322 71.835H218.822V71.335H218.322V71.835ZM219.245 82.584L218.883 82.9292L218.887 82.9326L219.245 82.584ZM224.518 82.5752L224.158 82.2282L224.157 82.23L224.518 82.5752ZM225.45 71.835V71.335H224.95V71.835H225.45ZM226.979 71.835H227.479V71.335H226.979V71.835ZM226.382 82.584L225.938 82.3536L225.937 82.3549L226.382 82.584ZM224.65 84.3242L224.418 83.8812L224.417 83.8819L224.65 84.3242ZM221.89 84.4219C220.867 84.4219 220.028 84.2337 219.354 83.8812L218.89 84.7673C219.74 85.2116 220.746 85.4219 221.89 85.4219V84.4219ZM219.354 83.8812C218.682 83.53 218.176 83.0236 217.825 82.3522L216.939 82.8157C217.384 83.6678 218.038 84.3216 218.89 84.7673L219.354 83.8812ZM217.827 82.3563C217.478 81.675 217.293 80.8314 217.293 79.8066H216.293C216.293 80.9499 216.5 81.9578 216.937 82.8117L217.827 82.3563ZM217.293 79.8066V71.835H216.293V79.8066H217.293ZM216.793 72.335H218.322V71.335H216.793V72.335ZM217.822 71.835V79.833H218.822V71.835H217.822ZM217.822 79.833C217.822 81.1069 218.153 82.164 218.883 82.9292L219.607 82.2387C219.107 81.7149 218.822 80.938 218.822 79.833H217.822ZM218.887 82.9326C219.626 83.6935 220.653 84.042 221.89 84.042V83.042C220.843 83.042 220.106 82.7519 219.603 82.2354L218.887 82.9326ZM221.89 84.042C223.124 84.042 224.146 83.6893 224.88 82.9204L224.157 82.23C223.66 82.7501 222.93 83.042 221.89 83.042V84.042ZM224.878 82.9221C225.615 82.1575 225.95 81.103 225.95 79.833H224.95C224.95 80.9302 224.664 81.7038 224.158 82.2282L224.878 82.9221ZM225.95 79.833V71.835H224.95V79.833H225.95ZM225.45 72.335H226.979V71.335H225.45V72.335ZM226.479 71.835V79.8066H227.479V71.835H226.479ZM226.479 79.8066C226.479 80.8303 226.291 81.673 225.938 82.3536L226.825 82.8143C227.269 81.9598 227.479 80.9509 227.479 79.8066H226.479ZM225.937 82.3549C225.592 83.0248 225.089 83.5303 224.418 83.8812L224.882 84.7673C225.735 84.3213 226.386 83.6666 226.826 82.813L225.937 82.3549ZM224.417 83.8819C223.75 84.2336 222.915 84.4219 221.89 84.4219V85.4219C223.034 85.4219 224.039 85.2117 224.883 84.7665L224.417 83.8819ZM241.004 84.5V85H241.628L241.491 84.3907L241.004 84.5ZM239.457 84.5L238.968 84.6067L239.054 85H239.457V84.5ZM238.745 81.2393L238.256 81.3458L238.256 81.3459L238.745 81.2393ZM238.226 79.7803L237.797 80.0365L237.802 80.0453L238.226 79.7803ZM237.374 79.0859L237.2 79.5548L237.209 79.558L237.374 79.0859ZM233.287 78.8838V78.3838H232.787V78.8838H233.287ZM233.287 84.5V85H233.787V84.5H233.287ZM231.757 84.5H231.257V85H231.757V84.5ZM231.757 71.835V71.335H231.257V71.835H231.757ZM239.993 77.2666L239.621 76.9326L239.618 76.9353L239.993 77.2666ZM237.971 78.207L237.883 77.715L237.864 78.6955L237.971 78.207ZM239.219 78.6904L238.922 79.0926L238.932 79.0996L239.219 78.6904ZM239.808 79.4375L239.342 79.617L239.343 79.62L239.808 79.4375ZM240.195 80.8877L239.706 80.9907L239.708 80.9999L239.71 81.009L240.195 80.8877ZM240.23 81.0547L239.738 81.1441L239.742 81.1654L239.748 81.1862L240.23 81.0547ZM240.283 81.2832L239.792 81.3813L239.795 81.3925L240.283 81.2832ZM237.839 73.3467L237.694 73.8251L237.7 73.8267L237.839 73.3467ZM233.287 73.1357V72.6357H232.787V73.1357H233.287ZM233.287 77.6006H232.787V78.1006H233.287V77.6006ZM241.004 84H239.457V85H241.004V84ZM239.945 84.3933L239.233 81.1326L238.256 81.3459L238.968 84.6067L239.945 84.3933ZM239.233 81.1327C239.088 80.4658 238.9 79.9147 238.65 79.5153L237.802 80.0453C237.963 80.3021 238.12 80.7237 238.256 81.3458L239.233 81.1327ZM238.656 79.5241C238.396 79.0888 238.018 78.7813 237.538 78.6139L237.209 79.558C237.468 79.6484 237.658 79.8038 237.797 80.0364L238.656 79.5241ZM237.548 78.6172C237.102 78.4519 236.514 78.3838 235.818 78.3838V79.3838C236.47 79.3838 236.919 79.4505 237.2 79.5547L237.548 78.6172ZM235.818 78.3838H233.287V79.3838H235.818V78.3838ZM232.787 78.8838V84.5H233.787V78.8838H232.787ZM233.287 84H231.757V85H233.287V84ZM232.257 84.5V71.835H231.257V84.5H232.257ZM231.757 72.335H235.932V71.335H231.757V72.335ZM235.932 72.335C237.119 72.335 237.996 72.4427 238.59 72.6357L238.899 71.6846C238.158 71.444 237.16 71.335 235.932 71.335V72.335ZM238.59 72.6357C239.166 72.8226 239.53 73.1149 239.743 73.4887L240.612 72.9937C240.251 72.3597 239.659 71.9313 238.899 71.6846L238.59 72.6357ZM239.743 73.4887C239.969 73.8861 240.108 74.4933 240.108 75.3594H241.108C241.108 74.409 240.96 73.6041 240.612 72.9937L239.743 73.4887ZM240.108 75.3594C240.108 76.0915 239.925 76.5939 239.621 76.9326L240.365 77.6006C240.881 77.0253 241.108 76.2561 241.108 75.3594H240.108ZM239.618 76.9353C239.32 77.272 238.775 77.5543 237.883 77.715L238.06 78.6991C239.055 78.5199 239.857 78.1753 240.367 77.5979L239.618 76.9353ZM237.864 78.6955C238.401 78.8128 238.736 78.955 238.922 79.0925L239.517 78.2883C239.164 78.0274 238.667 77.8474 238.078 77.7186L237.864 78.6955ZM238.932 79.0996C239.129 79.2378 239.261 79.408 239.342 79.617L240.275 79.258C240.121 78.8577 239.861 78.5298 239.507 78.2812L238.932 79.0996ZM239.343 79.62C239.444 79.8777 239.566 80.3267 239.706 80.9907L240.684 80.7847C240.543 80.1128 240.407 79.5949 240.274 79.255L239.343 79.62ZM239.71 81.009C239.718 81.0424 239.728 81.0869 239.738 81.1441L240.722 80.9652C240.709 80.8936 240.695 80.8268 240.68 80.7664L239.71 81.009ZM239.748 81.1862C239.761 81.2366 239.776 81.3011 239.793 81.3813L240.773 81.1851C240.754 81.0895 240.734 81.0017 240.712 80.9231L239.748 81.1862ZM239.795 81.3925L240.516 84.6093L241.491 84.3907L240.771 81.1739L239.795 81.3925ZM235.818 78.1006C236.963 78.1006 237.91 77.9098 238.583 77.4544C239.291 76.9755 239.631 76.249 239.631 75.3594H238.631C238.631 75.9639 238.419 76.358 238.023 76.6261C237.592 76.9179 236.882 77.1006 235.818 77.1006V78.1006ZM239.631 75.3594C239.631 74.7376 239.525 74.1852 239.256 73.757L238.41 74.2898C238.538 74.4945 238.631 74.8327 238.631 75.3594H239.631ZM239.256 73.757C238.974 73.3101 238.525 73.0254 237.979 72.8666L237.7 73.8267C238.08 73.9375 238.292 74.104 238.41 74.2898L239.256 73.757ZM237.985 72.8683C237.453 72.7067 236.748 72.6357 235.897 72.6357V73.6357C236.71 73.6357 237.3 73.7055 237.694 73.8251L237.985 72.8683ZM235.897 72.6357H233.287V73.6357H235.897V72.6357ZM232.787 73.1357V77.6006H233.787V73.1357H232.787ZM233.287 78.1006H235.818V77.1006H233.287V78.1006ZM254.922 78.3125H255.422V77.8125H254.922V78.3125ZM254.922 84.5879V85.0879H255.422V84.5879H254.922ZM253.832 84.5879L253.334 84.6294L253.372 85.0879H253.832V84.5879ZM253.683 82.7949L254.181 82.7534L254.041 81.0732L253.243 82.5581L253.683 82.7949ZM245.527 83.2432L245.148 83.5698L245.149 83.5709L245.527 83.2432ZM245.536 73.2061L245.155 72.8822L245.154 72.8834L245.536 73.2061ZM252.558 72.0107L252.373 72.4752L252.374 72.4757L252.558 72.0107ZM254.263 73.3291L253.845 73.6035L253.848 73.6084L254.263 73.3291ZM254.826 75.4209V75.9209H255.318L255.326 75.428L254.826 75.4209ZM253.34 75.4209H252.84V75.9209H253.34V75.4209ZM246.089 81.1865L245.612 81.3359L245.613 81.3392L246.089 81.1865ZM252.461 82.7246L252.789 83.1022L252.791 83.1005L252.461 82.7246ZM253.393 79.7188H253.893V79.2188H253.393V79.7188ZM249.552 79.7188H249.052V80.2188H249.552V79.7188ZM249.552 78.3125V77.8125H249.052V78.3125H249.552ZM254.422 78.3125V84.5879H255.422V78.3125H254.422ZM254.922 84.0879H253.832V85.0879H254.922V84.0879ZM254.331 84.5464L254.181 82.7534L253.185 82.8364L253.334 84.6294L254.331 84.5464ZM253.243 82.5581C252.909 83.1776 252.474 83.6169 251.938 83.8996L252.405 84.784C253.135 84.3988 253.706 83.8068 254.123 83.0318L253.243 82.5581ZM251.938 83.8996C251.396 84.1857 250.696 84.3428 249.816 84.3428V85.3428C250.81 85.3428 251.681 85.1659 252.405 84.784L251.938 83.8996ZM249.816 84.3428C247.971 84.3428 246.704 83.8362 245.904 82.9154L245.149 83.5709C246.201 84.7829 247.793 85.3428 249.816 85.3428V84.3428ZM245.905 82.9166C245.099 81.9814 244.647 80.4687 244.647 78.2773H243.647C243.647 80.5742 244.115 82.3721 245.148 83.5698L245.905 82.9166ZM244.647 78.2773C244.647 76.0444 245.102 74.4942 245.917 73.5288L245.154 72.8834C244.118 74.1094 243.647 75.94 243.647 78.2773H244.647ZM245.916 73.5299C246.723 72.5808 247.991 72.0625 249.825 72.0625V71.0625C247.803 71.0625 246.211 71.6399 245.155 72.8822L245.916 73.5299ZM249.825 72.0625C250.853 72.0625 251.698 72.2062 252.373 72.4752L252.743 71.5463C251.918 71.2177 250.941 71.0625 249.825 71.0625V72.0625ZM252.374 72.4757C253.051 72.7433 253.53 73.1236 253.845 73.6035L254.681 73.0547C254.234 72.3745 253.577 71.8758 252.742 71.5458L252.374 72.4757ZM253.848 73.6084C254.168 74.0834 254.336 74.6761 254.326 75.4138L255.326 75.428C255.338 74.5251 255.131 73.7233 254.678 73.0498L253.848 73.6084ZM254.826 74.9209H253.34V75.9209H254.826V74.9209ZM253.84 75.4209C253.84 74.4635 253.475 73.6789 252.729 73.1358L252.141 73.9442C252.602 74.2801 252.84 74.7494 252.84 75.4209H253.84ZM252.729 73.1358C252.007 72.61 251.026 72.3809 249.851 72.3809V73.3809C250.914 73.3809 251.656 73.5911 252.141 73.9442L252.729 73.1358ZM249.851 72.3809C248.341 72.3809 247.137 72.857 246.344 73.8849L247.135 74.4959C247.69 73.7778 248.56 73.3809 249.851 73.3809V72.3809ZM246.344 73.8849C245.571 74.8862 245.229 76.3633 245.229 78.2246H246.229C246.229 76.4531 246.561 75.2408 247.135 74.4959L246.344 73.8849ZM245.229 78.2246C245.229 79.4596 245.351 80.5022 245.612 81.3359L246.566 81.0372C246.347 80.3357 246.229 79.4037 246.229 78.2246H245.229ZM245.613 81.3392C245.889 82.2006 246.374 82.8827 247.077 83.3516L247.632 82.5195C247.14 82.1915 246.781 81.7076 246.565 81.0339L245.613 81.3392ZM247.077 83.3516C247.787 83.8243 248.716 84.0332 249.816 84.0332V83.0332C248.829 83.0332 248.118 82.8437 247.632 82.5195L247.077 83.3516ZM249.816 84.0332C251.032 84.0332 252.047 83.7462 252.789 83.1022L252.134 82.347C251.633 82.7811 250.885 83.0332 249.816 83.0332V84.0332ZM252.791 83.1005C253.542 82.4412 253.893 81.5208 253.893 80.4131H252.893C252.893 81.2975 252.622 81.9182 252.132 82.3488L252.791 83.1005ZM253.893 80.4131V79.7188H252.893V80.4131H253.893ZM253.393 79.2188H249.552V80.2188H253.393V79.2188ZM250.052 79.7188V78.3125H249.052V79.7188H250.052ZM249.552 78.8125H254.922V77.8125H249.552V78.8125ZM259.384 71.835V71.335H258.884V71.835H259.384ZM267.821 71.835H268.321V71.335H267.821V71.835ZM267.821 73.1709V73.6709H268.321V73.1709H267.821ZM260.913 73.1709V72.6709H260.413V73.1709H260.913ZM260.913 77.2314H260.413V77.7314H260.913V77.2314ZM266.784 77.2314H267.284V76.7314H266.784V77.2314ZM266.784 78.5498V79.0498H267.284V78.5498H266.784ZM260.913 78.5498V78.0498H260.413V78.5498H260.913ZM260.913 83.1641H260.413V83.6641H260.913V83.1641ZM267.848 83.1641H268.348V82.6641H267.848V83.1641ZM267.848 84.5V85H268.348V84.5H267.848ZM259.384 84.5H258.884V85H259.384V84.5ZM259.384 72.335H267.821V71.335H259.384V72.335ZM267.321 71.835V73.1709H268.321V71.835H267.321ZM267.821 72.6709H260.913V73.6709H267.821V72.6709ZM260.413 73.1709V77.2314H261.413V73.1709H260.413ZM260.913 77.7314H266.784V76.7314H260.913V77.7314ZM266.284 77.2314V78.5498H267.284V77.2314H266.284ZM266.784 78.0498H260.913V79.0498H266.784V78.0498ZM260.413 78.5498V83.1641H261.413V78.5498H260.413ZM260.913 83.6641H267.848V82.6641H260.913V83.6641ZM267.348 83.1641V84.5H268.348V83.1641H267.348ZM267.848 84H259.384V85H267.848V84ZM259.884 84.5V71.835H258.884V84.5H259.884ZM280.852 84.5V85H281.477L281.34 84.3907L280.852 84.5ZM279.306 84.5L278.817 84.6067L278.903 85H279.306V84.5ZM278.594 81.2393L278.105 81.3458L278.105 81.3459L278.594 81.2393ZM278.075 79.7803L277.646 80.0365L277.651 80.0453L278.075 79.7803ZM277.223 79.0859L277.049 79.5548L277.058 79.558L277.223 79.0859ZM273.136 78.8838V78.3838H272.636V78.8838H273.136ZM273.136 84.5V85H273.636V84.5H273.136ZM271.606 84.5H271.106V85H271.606V84.5ZM271.606 71.835V71.335H271.106V71.835H271.606ZM279.842 77.2666L279.47 76.9326L279.467 76.9353L279.842 77.2666ZM277.82 78.207L277.732 77.715L277.713 78.6955L277.82 78.207ZM279.068 78.6904L278.771 79.0926L278.781 79.0996L279.068 78.6904ZM279.657 79.4375L279.19 79.617L279.192 79.62L279.657 79.4375ZM280.044 80.8877L279.555 80.9907L279.556 80.9999L279.559 81.009L280.044 80.8877ZM280.079 81.0547L279.587 81.1441L279.591 81.1654L279.597 81.1862L280.079 81.0547ZM280.132 81.2832L279.641 81.3813L279.644 81.3925L280.132 81.2832ZM277.688 73.3467L277.543 73.8251L277.549 73.8267L277.688 73.3467ZM273.136 73.1357V72.6357H272.636V73.1357H273.136ZM273.136 77.6006H272.636V78.1006H273.136V77.6006ZM280.852 84H279.306V85H280.852V84ZM279.794 84.3933L279.082 81.1326L278.105 81.3459L278.817 84.6067L279.794 84.3933ZM279.082 81.1327C278.937 80.4658 278.749 79.9147 278.499 79.5153L277.651 80.0453C277.812 80.3021 277.969 80.7237 278.105 81.3458L279.082 81.1327ZM278.504 79.5241C278.245 79.0888 277.867 78.7813 277.387 78.6139L277.058 79.558C277.317 79.6484 277.507 79.8038 277.646 80.0364L278.504 79.5241ZM277.396 78.6172C276.951 78.4519 276.363 78.3838 275.667 78.3838V79.3838C276.319 79.3838 276.768 79.4505 277.049 79.5547L277.396 78.6172ZM275.667 78.3838H273.136V79.3838H275.667V78.3838ZM272.636 78.8838V84.5H273.636V78.8838H272.636ZM273.136 84H271.606V85H273.136V84ZM272.106 84.5V71.835H271.106V84.5H272.106ZM271.606 72.335H275.781V71.335H271.606V72.335ZM275.781 72.335C276.968 72.335 277.844 72.4427 278.439 72.6357L278.748 71.6846C278.007 71.444 277.009 71.335 275.781 71.335V72.335ZM278.439 72.6357C279.015 72.8226 279.379 73.1149 279.592 73.4887L280.461 72.9937C280.099 72.3597 279.508 71.9313 278.748 71.6846L278.439 72.6357ZM279.592 73.4887C279.818 73.8861 279.957 74.4933 279.957 75.3594H280.957C280.957 74.409 280.808 73.6041 280.461 72.9937L279.592 73.4887ZM279.957 75.3594C279.957 76.0915 279.774 76.5939 279.47 76.9326L280.214 77.6006C280.73 77.0253 280.957 76.2561 280.957 75.3594H279.957ZM279.467 76.9353C279.169 77.272 278.624 77.5543 277.732 77.715L277.909 78.6991C278.904 78.5199 279.705 78.1753 280.216 77.5979L279.467 76.9353ZM277.713 78.6955C278.25 78.8128 278.585 78.955 278.771 79.0925L279.365 78.2883C279.012 78.0274 278.516 77.8474 277.927 77.7186L277.713 78.6955ZM278.781 79.0996C278.978 79.2378 279.11 79.408 279.19 79.617L280.124 79.258C279.97 78.8577 279.71 78.5298 279.356 78.2812L278.781 79.0996ZM279.192 79.62C279.293 79.8777 279.415 80.3267 279.555 80.9907L280.533 80.7847C280.392 80.1128 280.256 79.5949 280.123 79.255L279.192 79.62ZM279.559 81.009C279.567 81.0424 279.577 81.0869 279.587 81.1441L280.571 80.9652C280.558 80.8936 280.544 80.8268 280.529 80.7664L279.559 81.009ZM279.597 81.1862C279.61 81.2366 279.625 81.3011 279.641 81.3813L280.622 81.1851C280.603 81.0895 280.583 81.0017 280.561 80.9231L279.597 81.1862ZM279.644 81.3925L280.365 84.6093L281.34 84.3907L280.62 81.1739L279.644 81.3925ZM275.667 78.1006C276.812 78.1006 277.759 77.9098 278.432 77.4544C279.14 76.9755 279.48 76.249 279.48 75.3594H278.48C278.48 75.9639 278.268 76.358 277.872 76.6261C277.441 76.9179 276.731 77.1006 275.667 77.1006V78.1006ZM279.48 75.3594C279.48 74.7376 279.374 74.1852 279.105 73.757L278.258 74.2898C278.387 74.4945 278.48 74.8327 278.48 75.3594H279.48ZM279.105 73.757C278.823 73.3101 278.374 73.0254 277.828 72.8666L277.549 73.8267C277.929 73.9375 278.141 74.104 278.258 74.2898L279.105 73.757ZM277.834 72.8683C277.302 72.7067 276.597 72.6357 275.746 72.6357V73.6357C276.559 73.6357 277.149 73.7055 277.543 73.8251L277.834 72.8683ZM275.746 72.6357H273.136V73.6357H275.746V72.6357ZM272.636 73.1357V77.6006H273.636V73.1357H272.636ZM273.136 78.1006H275.667V77.1006H273.136V78.1006ZM287.107 79.2617H287.607V79.1275L287.54 79.0113L287.107 79.2617ZM282.809 71.835V71.335H281.942L282.376 72.0854L282.809 71.835ZM284.426 71.835L284.861 71.5882L284.718 71.335H284.426V71.835ZM287.757 77.7061L287.323 77.9528L287.466 78.2061H287.757V77.7061ZM288.004 77.7061V78.2061H288.293L288.437 77.9552L288.004 77.7061ZM291.379 71.835V71.335H291.089L290.945 71.5858L291.379 71.835ZM292.969 71.835L293.401 72.0869L293.84 71.335H292.969V71.835ZM288.636 79.2617L288.204 79.0098L288.136 79.1265V79.2617H288.636ZM288.636 84.5V85H289.136V84.5H288.636ZM287.107 84.5H286.607V85H287.107V84.5ZM287.54 79.0113L283.242 71.5845L282.376 72.0854L286.674 79.5122L287.54 79.0113ZM282.809 72.335H284.426V71.335H282.809V72.335ZM283.992 72.0817L287.323 77.9528L288.192 77.4593L284.861 71.5882L283.992 72.0817ZM287.757 78.2061H288.004V77.2061H287.757V78.2061ZM288.437 77.9552L291.812 72.0841L290.945 71.5858L287.57 77.4569L288.437 77.9552ZM291.379 72.335H292.969V71.335H291.379V72.335ZM292.538 71.583L288.204 79.0098L289.068 79.5137L293.401 72.0869L292.538 71.583ZM288.136 79.2617V84.5H289.136V79.2617H288.136ZM288.636 84H287.107V85H288.636V84ZM287.607 84.5V79.2617H286.607V84.5H287.607ZM302.2 73.2148L302.576 73.5445L302.577 73.5435L302.2 73.2148ZM310.902 73.3291L310.48 73.5975L310.481 73.5995L310.902 73.3291ZM311.438 75.4209V75.9209H311.931L311.938 75.428L311.438 75.4209ZM309.952 75.4209H309.452V75.9209H309.952V75.4209ZM304.134 73.417L303.886 72.9826L303.885 72.9836L304.134 73.417ZM302.772 75.1221L303.24 75.2961L303.241 75.2949L302.772 75.1221ZM302.745 81.3184L302.273 81.4829L302.274 81.484L302.745 81.3184ZM304.02 83.0059L303.757 83.4316L303.762 83.4346L304.02 83.0059ZM309.021 82.874L309.309 83.2822L309.312 83.2804L309.021 82.874ZM309.952 80.9844V80.4844H309.452V80.9844H309.952ZM311.438 80.9844L311.938 80.9772L311.931 80.4844H311.438V80.9844ZM310.875 83.085L310.459 82.8076L310.458 82.8086L310.875 83.085ZM309.17 84.3945L308.986 83.9296L308.985 83.93L309.17 84.3945ZM306.428 84.3428C304.59 84.3428 303.326 83.8341 302.526 82.9076L301.769 83.5611C302.821 84.7792 304.41 85.3428 306.428 85.3428V84.3428ZM302.526 82.9076C301.713 81.966 301.259 80.4528 301.259 78.2686H300.259C300.259 80.5609 300.731 82.3582 301.769 83.5611L302.526 82.9076ZM301.259 78.2686C301.259 76.0516 301.73 74.5099 302.576 73.5445L301.824 72.8852C300.749 74.1112 300.259 75.9386 300.259 78.2686H301.259ZM302.577 73.5435C303.412 72.5866 304.73 72.0625 306.639 72.0625V71.0625C304.552 71.0625 302.911 71.64 301.824 72.8862L302.577 73.5435ZM306.639 72.0625C307.624 72.0625 308.431 72.2056 309.075 72.4726L309.458 71.5489C308.661 71.2182 307.716 71.0625 306.639 71.0625V72.0625ZM309.075 72.4726C309.714 72.7376 310.173 73.1154 310.48 73.5975L311.323 73.0607C310.892 72.3826 310.261 71.8815 309.458 71.5489L309.075 72.4726ZM310.481 73.5995C310.787 74.0756 310.948 74.6716 310.938 75.4138L311.938 75.428C311.95 74.5295 311.754 73.7311 311.322 73.0587L310.481 73.5995ZM311.438 74.9209H309.952V75.9209H311.438V74.9209ZM310.452 75.4209C310.452 74.4732 310.109 73.6899 309.395 73.143L308.787 73.9371C309.221 74.2691 309.452 74.7396 309.452 75.4209H310.452ZM309.395 73.143C308.701 72.612 307.76 72.3809 306.639 72.3809V73.3809C307.639 73.3809 308.332 73.5892 308.787 73.9371L309.395 73.143ZM306.639 72.3809C305.545 72.3809 304.615 72.5672 303.886 72.9826L304.382 73.8514C304.907 73.5519 305.646 73.3809 306.639 73.3809V72.3809ZM303.885 72.9836C303.146 73.4086 302.623 74.0784 302.302 74.9492L303.241 75.2949C303.494 74.6071 303.88 74.1403 304.383 73.8504L303.885 72.9836ZM302.303 74.9481C301.987 75.7997 301.841 76.9002 301.841 78.2246H302.841C302.841 76.9592 302.982 75.9914 303.24 75.2961L302.303 74.9481ZM301.841 78.2246C301.841 79.5414 301.978 80.6352 302.273 81.4829L303.217 81.1538C302.974 80.4547 302.841 79.486 302.841 78.2246H301.841ZM302.274 81.484C302.573 82.3379 303.062 83.0029 303.757 83.4315L304.282 82.5802C303.817 82.294 303.456 81.834 303.217 81.1527L302.274 81.484ZM303.762 83.4346C304.453 83.8487 305.334 84.0332 306.366 84.0332V83.0332C305.441 83.0332 304.759 82.8661 304.277 82.5771L303.762 83.4346ZM306.366 84.0332C307.569 84.0332 308.571 83.8048 309.309 83.2822L308.732 82.4659C308.228 82.8222 307.461 83.0332 306.366 83.0332V84.0332ZM309.312 83.2804C310.074 82.7341 310.452 81.9476 310.452 80.9844H309.452C309.452 81.6501 309.21 82.1233 308.729 82.4677L309.312 83.2804ZM309.952 81.4844H311.438V80.4844H309.952V81.4844ZM310.938 80.9915C310.948 81.729 310.78 82.3257 310.459 82.8076L311.291 83.3623C311.743 82.684 311.951 81.8804 311.938 80.9772L310.938 80.9915ZM310.458 82.8086C310.144 83.2832 309.665 83.6614 308.986 83.9296L309.354 84.8595C310.187 84.53 310.845 84.0352 311.292 83.3613L310.458 82.8086ZM308.985 83.93C308.31 84.199 307.463 84.3428 306.428 84.3428V85.3428C307.549 85.3428 308.53 85.1877 309.355 84.859L308.985 83.93ZM315.328 71.835V71.335H314.828V71.835H315.328ZM323.766 71.835H324.266V71.335H323.766V71.835ZM323.766 73.1709V73.6709H324.266V73.1709H323.766ZM316.857 73.1709V72.6709H316.357V73.1709H316.857ZM316.857 77.2314H316.357V77.7314H316.857V77.2314ZM322.728 77.2314H323.228V76.7314H322.728V77.2314ZM322.728 78.5498V79.0498H323.228V78.5498H322.728ZM316.857 78.5498V78.0498H316.357V78.5498H316.857ZM316.857 83.1641H316.357V83.6641H316.857V83.1641ZM323.792 83.1641H324.292V82.6641H323.792V83.1641ZM323.792 84.5V85H324.292V84.5H323.792ZM315.328 84.5H314.828V85H315.328V84.5ZM315.328 72.335H323.766V71.335H315.328V72.335ZM323.266 71.835V73.1709H324.266V71.835H323.266ZM323.766 72.6709H316.857V73.6709H323.766V72.6709ZM316.357 73.1709V77.2314H317.357V73.1709H316.357ZM316.857 77.7314H322.728V76.7314H316.857V77.7314ZM322.228 77.2314V78.5498H323.228V77.2314H322.228ZM322.728 78.0498H316.857V79.0498H322.728V78.0498ZM316.357 78.5498V83.1641H317.357V78.5498H316.357ZM316.857 83.6641H323.792V82.6641H316.857V83.6641ZM323.292 83.1641V84.5H324.292V83.1641H323.292ZM323.792 84H315.328V85H323.792V84ZM315.828 84.5V71.835H314.828V84.5H315.828ZM327.55 71.835V71.335H327.05V71.835H327.55ZM329.871 71.835L330.295 71.5706L330.148 71.335H329.871V71.835ZM336.814 82.9795L336.39 83.2439L336.537 83.4795H336.814V82.9795ZM337.095 82.9795V83.4795H337.595V82.9795H337.095ZM337.095 71.835V71.335H336.595V71.835H337.095ZM338.466 71.835H338.966V71.335H338.466V71.835ZM338.466 84.5V85H338.966V84.5H338.466ZM336.199 84.5L335.775 84.7654L335.922 85H336.199V84.5ZM329.124 73.2061L329.547 72.9406L329.4 72.7061H329.124V73.2061ZM328.834 73.2061V72.7061H328.33L328.334 73.2099L328.834 73.2061ZM328.922 84.5V85H329.425L329.422 84.4961L328.922 84.5ZM327.55 84.5H327.05V85H327.55V84.5ZM327.55 72.335H329.871V71.335H327.55V72.335ZM329.446 72.0994L336.39 83.2439L337.239 82.7151L330.295 71.5706L329.446 72.0994ZM336.814 83.4795H337.095V82.4795H336.814V83.4795ZM337.595 82.9795V71.835H336.595V82.9795H337.595ZM337.095 72.335H338.466V71.335H337.095V72.335ZM337.966 71.835V84.5H338.966V71.835H337.966ZM338.466 84H336.199V85H338.466V84ZM336.623 84.2346L329.547 72.9406L328.7 73.4715L335.775 84.7654L336.623 84.2346ZM329.124 72.7061H328.834V73.7061H329.124V72.7061ZM328.334 73.2099L328.422 84.5039L329.422 84.4961L329.334 73.2022L328.334 73.2099ZM328.922 84H327.55V85H328.922V84ZM328.05 84.5V71.835H327.05V84.5H328.05ZM345.714 73.1797H346.214V72.6797H345.714V73.1797ZM341.786 73.1797H341.286V73.6797H341.786V73.1797ZM341.786 71.835V71.335H341.286V71.835H341.786ZM351.164 71.835H351.664V71.335H351.164V71.835ZM351.164 73.1797V73.6797H351.664V73.1797H351.164ZM347.235 73.1797V72.6797H346.735V73.1797H347.235ZM347.235 84.5088V85.0088H347.735V84.5088H347.235ZM345.714 84.5088H345.214V85.0088H345.714V84.5088ZM345.714 72.6797H341.786V73.6797H345.714V72.6797ZM342.286 73.1797V71.835H341.286V73.1797H342.286ZM341.786 72.335H351.164V71.335H341.786V72.335ZM350.664 71.835V73.1797H351.664V71.835H350.664ZM351.164 72.6797H347.235V73.6797H351.164V72.6797ZM346.735 73.1797V84.5088H347.735V73.1797H346.735ZM347.235 84.0088H345.714V85.0088H347.235V84.0088ZM346.214 84.5088V73.1797H345.214V84.5088H346.214ZM354.491 71.835V71.335H353.991V71.835H354.491ZM362.929 71.835H363.429V71.335H362.929V71.835ZM362.929 73.1709V73.6709H363.429V73.1709H362.929ZM356.021 73.1709V72.6709H355.521V73.1709H356.021ZM356.021 77.2314H355.521V77.7314H356.021V77.2314ZM361.892 77.2314H362.392V76.7314H361.892V77.2314ZM361.892 78.5498V79.0498H362.392V78.5498H361.892ZM356.021 78.5498V78.0498H355.521V78.5498H356.021ZM356.021 83.1641H355.521V83.6641H356.021V83.1641ZM362.955 83.1641H363.455V82.6641H362.955V83.1641ZM362.955 84.5V85H363.455V84.5H362.955ZM354.491 84.5H353.991V85H354.491V84.5ZM354.491 72.335H362.929V71.335H354.491V72.335ZM362.429 71.835V73.1709H363.429V71.835H362.429ZM362.929 72.6709H356.021V73.6709H362.929V72.6709ZM355.521 73.1709V77.2314H356.521V73.1709H355.521ZM356.021 77.7314H361.892V76.7314H356.021V77.7314ZM361.392 77.2314V78.5498H362.392V77.2314H361.392ZM361.892 78.0498H356.021V79.0498H361.892V78.0498ZM355.521 78.5498V83.1641H356.521V78.5498H355.521ZM356.021 83.6641H362.955V82.6641H356.021V83.6641ZM362.455 83.1641V84.5H363.455V83.1641H362.455ZM362.955 84H354.491V85H362.955V84ZM354.991 84.5V71.835H353.991V84.5H354.991ZM375.96 84.5V85H376.584L376.448 84.3907L375.96 84.5ZM374.413 84.5L373.925 84.6067L374.01 85H374.413V84.5ZM373.701 81.2393L373.213 81.3458L373.213 81.3459L373.701 81.2393ZM373.183 79.7803L372.753 80.0365L372.759 80.0453L373.183 79.7803ZM372.33 79.0859L372.156 79.5548L372.165 79.558L372.33 79.0859ZM368.243 78.8838V78.3838H367.743V78.8838H368.243ZM368.243 84.5V85H368.743V84.5H368.243ZM366.714 84.5H366.214V85H366.714V84.5ZM366.714 71.835V71.335H366.214V71.835H366.714ZM374.949 77.2666L374.577 76.9326L374.575 76.9353L374.949 77.2666ZM372.928 78.207L372.839 77.715L372.821 78.6955L372.928 78.207ZM374.176 78.6904L373.878 79.0926L373.888 79.0996L374.176 78.6904ZM374.765 79.4375L374.298 79.617L374.299 79.62L374.765 79.4375ZM375.151 80.8877L374.662 80.9907L374.664 80.9999L374.666 81.009L375.151 80.8877ZM375.186 81.0547L374.695 81.1441L374.698 81.1654L374.704 81.1862L375.186 81.0547ZM375.239 81.2832L374.749 81.3813L374.751 81.3925L375.239 81.2832ZM372.796 73.3467L372.651 73.8251L372.656 73.8267L372.796 73.3467ZM368.243 73.1357V72.6357H367.743V73.1357H368.243ZM368.243 77.6006H367.743V78.1006H368.243V77.6006ZM375.96 84H374.413V85H375.96V84ZM374.902 84.3933L374.19 81.1326L373.213 81.3459L373.925 84.6067L374.902 84.3933ZM374.19 81.1327C374.044 80.4658 373.856 79.9147 373.607 79.5153L372.759 80.0453C372.919 80.3021 373.077 80.7237 373.213 81.3458L374.19 81.1327ZM373.612 79.5241C373.352 79.0888 372.974 78.7813 372.495 78.6139L372.165 79.558C372.424 79.6484 372.614 79.8038 372.753 80.0364L373.612 79.5241ZM372.504 78.6172C372.058 78.4519 371.47 78.3838 370.774 78.3838V79.3838C371.426 79.3838 371.875 79.4505 372.156 79.5547L372.504 78.6172ZM370.774 78.3838H368.243V79.3838H370.774V78.3838ZM367.743 78.8838V84.5H368.743V78.8838H367.743ZM368.243 84H366.714V85H368.243V84ZM367.214 84.5V71.835H366.214V84.5H367.214ZM366.714 72.335H370.889V71.335H366.714V72.335ZM370.889 72.335C372.075 72.335 372.952 72.4427 373.547 72.6357L373.855 71.6846C373.114 71.444 372.116 71.335 370.889 71.335V72.335ZM373.547 72.6357C374.123 72.8226 374.486 73.1149 374.699 73.4887L375.568 72.9937C375.207 72.3597 374.616 71.9313 373.855 71.6846L373.547 72.6357ZM374.699 73.4887C374.926 73.8861 375.064 74.4933 375.064 75.3594H376.064C376.064 74.409 375.916 73.6041 375.568 72.9937L374.699 73.4887ZM375.064 75.3594C375.064 76.0915 374.881 76.5939 374.577 76.9326L375.321 77.6006C375.838 77.0253 376.064 76.2561 376.064 75.3594H375.064ZM374.575 76.9353C374.277 77.272 373.731 77.5543 372.839 77.715L373.016 78.6991C374.011 78.5199 374.813 78.1753 375.324 77.5979L374.575 76.9353ZM372.821 78.6955C373.357 78.8128 373.693 78.955 373.879 79.0925L374.473 78.2883C374.12 78.0274 373.623 77.8474 373.035 77.7186L372.821 78.6955ZM373.888 79.0996C374.085 79.2378 374.218 79.408 374.298 79.617L375.231 79.258C375.077 78.8577 374.817 78.5298 374.463 78.2812L373.888 79.0996ZM374.299 79.62C374.4 79.8777 374.522 80.3267 374.662 80.9907L375.641 80.7847C375.499 80.1128 375.363 79.5949 375.23 79.255L374.299 79.62ZM374.666 81.009C374.675 81.0424 374.684 81.0869 374.695 81.1441L375.678 80.9652C375.665 80.8936 375.651 80.8268 375.636 80.7664L374.666 81.009ZM374.704 81.1862C374.718 81.2366 374.733 81.3011 374.749 81.3813L375.729 81.1851C375.71 81.0895 375.69 81.0017 375.669 80.9231L374.704 81.1862ZM374.751 81.3925L375.472 84.6093L376.448 84.3907L375.727 81.1739L374.751 81.3925ZM370.774 78.1006C371.92 78.1006 372.866 77.9098 373.54 77.4544C374.248 76.9755 374.588 76.249 374.588 75.3594H373.588C373.588 75.9639 373.376 76.358 372.979 76.6261C372.548 76.9179 371.838 77.1006 370.774 77.1006V78.1006ZM374.588 75.3594C374.588 74.7376 374.482 74.1852 374.212 73.757L373.366 74.2898C373.495 74.4945 373.588 74.8327 373.588 75.3594H374.588ZM374.212 73.757C373.931 73.3101 373.481 73.0254 372.936 72.8666L372.656 73.8267C373.036 73.9375 373.249 74.104 373.366 74.2898L374.212 73.757ZM372.941 72.8683C372.409 72.7067 371.705 72.6357 370.853 72.6357V73.6357C371.666 73.6357 372.257 73.7055 372.651 73.8251L372.941 72.8683ZM370.853 72.6357H368.243V73.6357H370.853V72.6357ZM367.743 73.1357V77.6006H368.743V73.1357H367.743ZM368.243 78.1006H370.774V77.1006H368.243V78.1006Z" fill="#323232"/>
<defs>
<filter id="filter0_d_238_1827" x="-4.22583" y="78.5066" width="103.649" height="21.8168" filterUnits="userSpaceOnUse" color-interpolation-filters="sRGB">
<feFlood flood-opacity="0" result="BackgroundImageFix"/>
<feColorMatrix in="SourceAlpha" type="matrix" values="0 0 0 0 0 0 0 0 0 0 0 0 0 0 0 0 0 0 127 0" result="hardAlpha"/>
<feOffset dy="-1"/>
<feGaussianBlur stdDeviation="2.5"/>
<feComposite in2="hardAlpha" operator="out"/>
<feColorMatrix type="matrix" values="0 0 0 0 0 0 0 0 0 0 0 0 0 0 0 0 0 0 0.5 0"/>
<feBlend mode="normal" in2="BackgroundImageFix" result="effect1_dropShadow_238_1827"/>
<feBlend mode="normal" in="SourceGraphic" in2="effect1_dropShadow_238_1827" result="shape"/>
</filter>
<filter id="filter1_d_238_1827" x="7.08398" y="-0.671997" width="36.1047" height="87.4194" filterUnits="userSpaceOnUse" color-interpolation-filters="sRGB">
<feFlood flood-opacity="0" result="BackgroundImageFix"/>
<feColorMatrix in="SourceAlpha" type="matrix" values="0 0 0 0 0 0 0 0 0 0 0 0 0 0 0 0 0 0 127 0" result="hardAlpha"/>
<feOffset dx="-3"/>
<feGaussianBlur stdDeviation="1.5"/>
<feComposite in2="hardAlpha" operator="out"/>
<feColorMatrix type="matrix" values="0 0 0 0 0 0 0 0 0 0 0 0 0 0 0 0 0 0 0.3 0"/>
<feBlend mode="normal" in2="BackgroundImageFix" result="effect1_dropShadow_238_1827"/>
<feBlend mode="normal" in="SourceGraphic" in2="effect1_dropShadow_238_1827" result="shape"/>
</filter>
<filter id="filter2_d_238_1827" x="50.8645" y="-0.671997" width="34.5957" height="86.8593" filterUnits="userSpaceOnUse" color-interpolation-filters="sRGB">
<feFlood flood-opacity="0" result="BackgroundImageFix"/>
<feColorMatrix in="SourceAlpha" type="matrix" values="0 0 0 0 0 0 0 0 0 0 0 0 0 0 0 0 0 0 127 0" result="hardAlpha"/>
<feOffset dx="3"/>
<feGaussianBlur stdDeviation="1.5"/>
<feComposite in2="hardAlpha" operator="out"/>
<feColorMatrix type="matrix" values="0 0 0 0 0 0 0 0 0 0 0 0 0 0 0 0 0 0 0.3 0"/>
<feBlend mode="normal" in2="BackgroundImageFix" result="effect1_dropShadow_238_1827"/>
<feBlend mode="normal" in="SourceGraphic" in2="effect1_dropShadow_238_1827" result="shape"/>
</filter>
<clipPath id="clip0_238_1827">
<rect width="96" height="97" fill="white"/>
</clipPath>
</defs>
</svg>
